<?xml version="1.0" encoding="UTF-8" standalone="no"?>
<svg
   width="289.7261pt"
   height="207.13126pt"
   viewBox="0 0 289.72611 207.13126"
   version="1.1"
   id="svg102"
   sodipodi:docname="calc1_int6.pdf"
   xmlns:inkscape="http://www.inkscape.org/namespaces/inkscape"
   xmlns:sodipodi="http://sodipodi.sourceforge.net/DTD/sodipodi-0.dtd"
   xmlns:xlink="http://www.w3.org/1999/xlink"
   xmlns="http://www.w3.org/2000/svg"
   xmlns:svg="http://www.w3.org/2000/svg">
  <sodipodi:namedview
     id="namedview102"
     pagecolor="#ffffff"
     bordercolor="#000000"
     borderopacity="0.25"
     inkscape:showpageshadow="2"
     inkscape:pageopacity="0.0"
     inkscape:pagecheckerboard="0"
     inkscape:deskcolor="#d1d1d1"
     inkscape:document-units="pt" />
  <defs
     id="defs22">
    <g
       id="g22">
      <g
         id="glyph-0-0">
        <path
           d="m -0.28125,-0.328125 c 0,-0.125 0.042969,-0.210937 0.125,-0.265625 0.0742188,-0.0625 0.15234375,-0.09375 0.234375,-0.09375 0.039063,0 0.078125,0.007812 0.109375,0.015625 0.039062,0.011719 0.085938,0.03125 0.140625,0.0625 L 0.5,-0.515625 c 0.019531,0.011719 0.039062,0.023437 0.0625,0.03125 0.019531,0 0.039062,0 0.0625,0 0.082031,0 0.144531,-0.019531 0.1875,-0.0625 0.050781,-0.039063 0.164062,-0.179687 0.34375,-0.421875 0.125,-0.164062 0.398438,-0.554688 0.828125,-1.171875 0,-0.019531 -0.042969,-0.191406 -0.125,-0.515625 C 1.785156,-2.988281 1.71875,-3.269531 1.65625,-3.5 1.59375,-3.726562 1.535156,-3.878906 1.484375,-3.953125 1.441406,-4.023438 1.351562,-4.0625 1.21875,-4.0625 c -0.042969,0 -0.132812,0.015625 -0.265625,0.046875 -0.085937,0.023437 -0.179687,0.042969 -0.28125,0.0625 l -0.03125,-0.140625 0.53125,-0.1875 C 1.316406,-4.332031 1.445312,-4.367188 1.5625,-4.390625 1.6875,-4.421875 1.789062,-4.4375 1.875,-4.4375 c 0.132812,0 0.234375,0.039062 0.296875,0.109375 0.101563,0.136719 0.191406,0.398437 0.265625,0.78125 L 2.546875,-3 c 0.289063,-0.445312 0.519531,-0.757812 0.6875,-0.9375 0.144531,-0.164062 0.28125,-0.289062 0.40625,-0.375 0.132813,-0.082031 0.257813,-0.125 0.375,-0.125 0.113281,0 0.203125,0.015625 0.265625,0.046875 0.125,0.0625 0.1875,0.179687 0.1875,0.34375 0,0.105469 -0.03125,0.1875 -0.09375,0.25 -0.0625,0.0625 -0.140625,0.09375 -0.234375,0.09375 -0.042969,0 -0.078125,0 -0.109375,0 C 4,-3.710938 3.96875,-3.726562 3.9375,-3.75 L 3.796875,-3.796875 C 3.765625,-3.816406 3.734375,-3.832031 3.703125,-3.84375 3.671875,-3.851562 3.644531,-3.859375 3.625,-3.859375 c -0.148438,0 -0.351562,0.195313 -0.609375,0.578125 -0.261719,0.375 -0.390625,0.589844 -0.390625,0.640625 0,0.054687 0.03125,0.214844 0.09375,0.484375 0.0625,0.261719 0.128906,0.542969 0.203125,0.84375 0.0625,0.28125 0.113281,0.480469 0.15625,0.59375 0.070313,0.179688 0.15625,0.265625 0.25,0.265625 0.09375,0 0.179687,-0.046875 0.265625,-0.140625 0.09375,-0.101562 0.234375,-0.285156 0.421875,-0.546875 l 0.140625,0.09375 c -0.148438,0.25 -0.292969,0.464844 -0.4375,0.640625 C 3.4375,-0.0625 3.164062,0.109375 2.90625,0.109375 2.738281,0.109375 2.609375,0.0273438 2.515625,-0.125 2.460938,-0.21875 2.410156,-0.367188 2.359375,-0.578125 L 2.0625,-1.78125 l -1,1.3125 C 0.863281,-0.238281 0.707031,-0.0820312 0.59375,0 0.488281,0.0703125 0.359375,0.109375 0.203125,0.109375 c -0.20703125,0 -0.347656,-0.0703125 -0.421875,-0.203125 -0.039062,-0.0625 -0.0625,-0.140625 -0.0625,-0.234375 z m 0,0"
           id="path1" />
      </g>
      <g
         id="glyph-0-1">
        <path
           d="m -0.265625,1.625 c 0,-0.105469 0.039063,-0.199219 0.109375,-0.28125 C -0.09375,1.269531 0,1.234375 0.125,1.234375 c 0.082031,0 0.15625,0.015625 0.21875,0.046875 0.0625,0.03125 0.125,0.078125 0.1875,0.140625 L 0.59375,1.46875 C 0.613281,1.488281 0.632812,1.5 0.65625,1.5 0.6875,1.507812 0.71875,1.515625 0.75,1.515625 c 0.15625,0 0.410156,-0.214844 0.765625,-0.640625 0.351563,-0.417969 0.53125,-0.71875 0.53125,-0.90625 0,-0.1875 -0.0625,-0.546875 -0.1875,-1.078125 C 1.742188,-1.640625 1.628906,-2.113281 1.515625,-2.53125 1.347656,-3.113281 1.195312,-3.507812 1.0625,-3.71875 c -0.125,-0.207031 -0.320312,-0.3125 -0.578125,-0.3125 -0.023437,0 -0.058594,0 -0.109375,0 -0.042969,0 -0.121094,0.011719 -0.234375,0.03125 v -0.171875 l 1.34375,-0.25 h 0.09375 c 0.082031,-0.00781 0.238281,0.355469 0.46875,1.09375 0.207031,0.667969 0.335937,1.152344 0.390625,1.453125 l 0.203125,1.15625 c 0.34375,-0.570312 0.59375,-1.007812 0.75,-1.3125 0.3125,-0.601562 0.46875,-1.023438 0.46875,-1.265625 0,-0.050781 -0.011719,-0.101563 -0.03125,-0.15625 C 3.804688,-3.515625 3.757812,-3.5625 3.6875,-3.59375 L 3.609375,-3.640625 c -0.054687,-0.03125 -0.117187,-0.078125 -0.1875,-0.140625 -0.0625,-0.070312 -0.09375,-0.171875 -0.09375,-0.296875 0,-0.101563 0.03125,-0.1875 0.09375,-0.25 0.0625,-0.070313 0.160156,-0.109375 0.296875,-0.109375 0.15625,0 0.285156,0.054688 0.390625,0.15625 0.101563,0.09375 0.15625,0.257812 0.15625,0.484375 0,0.34375 -0.195313,0.902344 -0.578125,1.671875 C 3.394531,-1.53125 3.066406,-0.957031 2.703125,-0.40625 2.253906,0.277344 1.863281,0.8125 1.53125,1.1875 1.019531,1.78125 0.59375,2.078125 0.25,2.078125 c -0.136719,0 -0.25390625,-0.042969 -0.359375,-0.125 C -0.210938,1.867188 -0.265625,1.757812 -0.265625,1.625 Z m 0,0"
           id="path2" />
      </g>
      <g
         id="glyph-0-2">
        <path
           d="m 2.9375,-0.15625 c 0.257812,-0.007812 0.4375,-0.03125 0.53125,-0.0625 0.15625,-0.0625 0.234375,-0.171875 0.234375,-0.328125 0,-0.0625 -0.011719,-0.132813 -0.03125,-0.21875 -0.023437,-0.09375 -0.054687,-0.1875 -0.09375,-0.28125 l -0.65625,-1.65625 -1.5,1.71875 c -0.0625,0.074219 -0.117187,0.152344 -0.15625,0.234375 -0.042969,0.074219 -0.0625,0.152344 -0.0625,0.234375 0,0.15625 0.066406,0.257813 0.203125,0.296875 0.082031,0.03125 0.226562,0.054688 0.4375,0.0625 V 0 h -2.140625 v -0.15625 c 0.2304688,-0.03125 0.519531,-0.207031 0.875,-0.53125 0.207031,-0.1875 0.507813,-0.515625 0.90625,-0.984375 l 1.25,-1.4375 -1.0625,-2.65625 C 1.578125,-6.003906 1.472656,-6.15625 1.359375,-6.21875 1.253906,-6.28125 1.054688,-6.328125 0.765625,-6.359375 V -6.53125 H 3.40625 v 0.171875 c -0.28125,0.03125 -0.476562,0.074219 -0.578125,0.125 -0.105469,0.054687 -0.15625,0.15625 -0.15625,0.3125 0,0.042969 0.00391,0.085937 0.015625,0.125 0.00781,0.03125 0.023438,0.078125 0.046875,0.140625 l 0.6875,1.75 1.46875,-1.6875 c 0.039063,-0.0625 0.082031,-0.128906 0.125,-0.203125 0.039063,-0.082031 0.0625,-0.15625 0.0625,-0.21875 0,-0.125 -0.042969,-0.203125 -0.125,-0.234375 C 4.867188,-6.289062 4.707031,-6.328125 4.46875,-6.359375 V -6.53125 h 2.078125 v 0.171875 c -0.25,0.085937 -0.453125,0.1875 -0.609375,0.3125 -0.15625,0.125 -0.421875,0.398437 -0.796875,0.8125 -0.03125,0.03125 -0.261719,0.292969 -0.6875,0.78125 -0.429687,0.492187 -0.714844,0.820313 -0.859375,0.984375 l 1.03125,2.5625 c 0.125,0.292969 0.257812,0.492188 0.40625,0.59375 0.144531,0.09375 0.359375,0.148438 0.640625,0.15625 V 0 H 2.9375 Z m 0,0"
           id="path3" />
      </g>
      <g
         id="glyph-0-3" />
      <g
         id="glyph-0-4">
        <path
           d="M 6.140625,-3.796875 6.03125,-3.203125 H 1.015625 l 0.125,-0.59375 z m -0.40625,1.984375 -0.125,0.59375 H 0.59375 l 0.125,-0.59375 z m 0,0"
           id="path4" />
      </g>
      <g
         id="glyph-1-0">
        <path
           d="m 0.515625,-1.53125 h 0.15625 c 0.082031,0.367188 0.1875,0.648438 0.3125,0.84375 0.226563,0.367188 0.5625,0.546875 1,0.546875 0.238281,0 0.429687,-0.066406 0.578125,-0.203125 C 2.707031,-0.476562 2.78125,-0.648438 2.78125,-0.859375 2.78125,-0.992188 2.738281,-1.125 2.65625,-1.25 2.570312,-1.382812 2.425781,-1.507812 2.21875,-1.625 L 1.671875,-1.9375 c -0.398437,-0.21875 -0.6875,-0.4375 -0.875,-0.65625 -0.1875,-0.21875 -0.28125,-0.472656 -0.28125,-0.765625 0,-0.363281 0.128906,-0.660156 0.390625,-0.890625 0.257812,-0.238281 0.582031,-0.359375 0.96875,-0.359375 0.175781,0 0.367188,0.03125 0.578125,0.09375 0.207031,0.0625 0.320313,0.09375 0.34375,0.09375 0.0625,0 0.101563,-0.00391 0.125,-0.015625 C 2.953125,-4.457031 2.976562,-4.484375 3,-4.515625 h 0.109375 l 0.03125,1.359375 H 3 C 2.925781,-3.476562 2.835938,-3.722656 2.734375,-3.890625 c -0.210937,-0.332031 -0.5,-0.5 -0.875,-0.5 -0.230469,0 -0.414063,0.074219 -0.546875,0.21875 C 1.1875,-4.035156 1.125,-3.875 1.125,-3.6875 c 0,0.304688 0.222656,0.574219 0.671875,0.8125 L 2.4375,-2.53125 c 0.695312,0.375 1.046875,0.8125 1.046875,1.3125 0,0.386719 -0.148437,0.703125 -0.4375,0.953125 -0.28125,0.2421875 -0.65625,0.359375 -1.125,0.359375 C 1.722656,0.09375 1.5,0.0625 1.25,0 1.007812,-0.0703125 0.863281,-0.109375 0.8125,-0.109375 c -0.042969,0 -0.078125,0.015625 -0.109375,0.046875 -0.023437,0.03125 -0.042969,0.06640625 -0.0625,0.109375 h -0.125 z m 1.4375,-3.078125 z m 0,0"
           id="path5" />
      </g>
      <g
         id="glyph-1-1">
        <path
           d="M 0.828125,-6.296875 C 0.828125,-6.441406 0.875,-6.5625 0.96875,-6.65625 1.0625,-6.757812 1.179688,-6.8125 1.328125,-6.8125 c 0.132813,0 0.253906,0.054688 0.359375,0.15625 0.101562,0.09375 0.15625,0.214844 0.15625,0.359375 0,0.136719 -0.054688,0.257813 -0.15625,0.359375 C 1.582031,-5.84375 1.460938,-5.796875 1.328125,-5.796875 1.179688,-5.796875 1.0625,-5.84375 0.96875,-5.9375 0.875,-6.039062 0.828125,-6.160156 0.828125,-6.296875 Z m -0.625,6.15625 C 0.546875,-0.171875 0.757812,-0.226562 0.84375,-0.3125 0.9375,-0.394531 0.984375,-0.628906 0.984375,-1.015625 V -3.34375 c 0,-0.207031 -0.011719,-0.351562 -0.03125,-0.4375 -0.054687,-0.132812 -0.15625,-0.203125 -0.3125,-0.203125 -0.03125,0 -0.070313,0.00781 -0.109375,0.015625 -0.03125,0 -0.132812,0.027344 -0.296875,0.078125 v -0.15625 l 0.21875,-0.0625 c 0.5625,-0.1875 0.957031,-0.328125 1.1875,-0.421875 0.09375,-0.039062 0.148437,-0.0625 0.171875,-0.0625 0.00781,0.023438 0.015625,0.046875 0.015625,0.078125 v 3.5 c 0,0.375 0.039063,0.609375 0.125,0.703125 C 2.046875,-0.21875 2.25,-0.160156 2.5625,-0.140625 V 0 H 0.203125 Z m 0,0"
           id="path6" />
      </g>
      <g
         id="glyph-1-2">
        <path
           d="m 0.984375,0.90625 c 0,0.269531 0.148437,0.457031 0.453125,0.5625 C 1.75,1.570312 2.101562,1.625 2.5,1.625 c 0.539062,0 0.976562,-0.09375 1.3125,-0.28125 0.34375,-0.1875 0.515625,-0.417969 0.515625,-0.6875 0,-0.21875 -0.136719,-0.367188 -0.40625,-0.4375 -0.179687,-0.042969 -0.5,-0.070312 -0.96875,-0.078125 -0.117187,0 -0.242187,-0.007813 -0.375,-0.015625 -0.136719,0 -0.261719,0 -0.375,0 C 2.128906,0.113281 2.015625,0.0976562 1.859375,0.078125 1.703125,0.0546875 1.582031,0.0351562 1.5,0.015625 c -0.03125,0 -0.125,0.101563 -0.28125,0.3125 C 1.0625,0.535156 0.984375,0.726562 0.984375,0.90625 Z m 0.625,-2.546875 c -0.292969,-0.09375 -0.523437,-0.265625 -0.6875,-0.515625 -0.167969,-0.257812 -0.25,-0.546875 -0.25,-0.859375 0,-0.375 0.148437,-0.734375 0.453125,-1.078125 0.3125,-0.34375 0.742188,-0.515625 1.296875,-0.515625 0.238281,0 0.5,0.058594 0.78125,0.171875 0.289063,0.117188 0.566406,0.171875 0.828125,0.171875 0.0625,0 0.160156,0 0.296875,0 0.144531,-0.00781 0.25,-0.015625 0.3125,-0.015625 h 0.0625 v 0.390625 h -0.84375 c 0.050781,0.136719 0.09375,0.257813 0.125,0.359375 0.0625,0.1875 0.09375,0.367188 0.09375,0.53125 0,0.375 -0.15625,0.71875 -0.46875,1.03125 C 3.304688,-1.65625 2.894531,-1.5 2.375,-1.5 c -0.085938,0 -0.234375,-0.015625 -0.453125,-0.046875 -0.09375,0 -0.21875,0.085937 -0.375,0.25 -0.148437,0.15625 -0.21875,0.28125 -0.21875,0.375 0,0.105469 0.113281,0.183594 0.34375,0.234375 0.144531,0.03125 0.304687,0.046875 0.484375,0.046875 0.84375,0 1.414062,0.046875 1.71875,0.140625 0.488281,0.15625 0.734375,0.4882812 0.734375,0.984375 0,0.519531 -0.292969,0.929687 -0.875,1.234375 C 3.160156,2.019531 2.582031,2.171875 2,2.171875 1.46875,2.171875 1.046875,2.0625 0.734375,1.84375 0.421875,1.632812 0.265625,1.410156 0.265625,1.171875 c 0,-0.117187 0.039063,-0.230469 0.125,-0.34375 0.082031,-0.117187 0.242187,-0.28125 0.484375,-0.5 l 0.328125,-0.28125 0.0625,-0.0625 c -0.15625,-0.0625 -0.273437,-0.117187 -0.34375,-0.171875 -0.125,-0.101562 -0.1875,-0.21875 -0.1875,-0.34375 0,-0.125 0.050781,-0.257812 0.15625,-0.40625 0.113281,-0.144531 0.351563,-0.378906 0.71875,-0.703125 z m 0.9375,-0.09375 c 0.175781,0 0.328125,-0.050781 0.453125,-0.15625 0.1875,-0.15625 0.28125,-0.425781 0.28125,-0.8125 0,-0.3125 -0.078125,-0.660156 -0.234375,-1.046875 -0.15625,-0.382812 -0.417969,-0.578125 -0.78125,-0.578125 -0.324219,0 -0.542969,0.152344 -0.65625,0.453125 -0.0625,0.15625 -0.09375,0.355469 -0.09375,0.59375 0,0.398438 0.09375,0.757812 0.28125,1.078125 0.1875,0.3125 0.4375,0.46875 0.75,0.46875 z M 2.5,-4.609375 Z m 0,0"
           id="path7" />
      </g>
      <g
         id="glyph-1-3">
        <path
           d="M 0.1875,-0.140625 C 0.414062,-0.171875 0.578125,-0.226562 0.671875,-0.3125 0.765625,-0.394531 0.8125,-0.585938 0.8125,-0.890625 v -2.46875 c 0,-0.207031 -0.023438,-0.351563 -0.0625,-0.4375 -0.0625,-0.125 -0.195312,-0.1875 -0.390625,-0.1875 -0.023437,0 -0.046875,0 -0.078125,0 -0.03125,0 -0.074219,0.00781 -0.125,0.015625 V -4.140625 C 0.289062,-4.179688 0.609375,-4.28125 1.109375,-4.4375 L 1.5625,-4.59375 c 0.03125,0 0.046875,0.011719 0.046875,0.03125 0,0.011719 0,0.03125 0,0.0625 v 0.71875 C 1.910156,-4.0625 2.144531,-4.253906 2.3125,-4.359375 2.570312,-4.515625 2.835938,-4.59375 3.109375,-4.59375 c 0.21875,0 0.421875,0.0625 0.609375,0.1875 0.351562,0.25 0.53125,0.6875 0.53125,1.3125 v 2.28125 c 0,0.242188 0.046875,0.414062 0.140625,0.515625 0.09375,0.105469 0.25,0.15625 0.46875,0.15625 V 0 H 2.78125 v -0.140625 c 0.226562,-0.03125 0.390625,-0.09375 0.484375,-0.1875 0.09375,-0.101563 0.140625,-0.320313 0.140625,-0.65625 V -3.0625 C 3.40625,-3.34375 3.351562,-3.570312 3.25,-3.75 3.144531,-3.9375 2.957031,-4.03125 2.6875,-4.03125 c -0.199219,0 -0.398438,0.0625 -0.59375,0.1875 -0.117188,0.074219 -0.257812,0.199219 -0.421875,0.375 v 2.734375 c 0,0.230469 0.050781,0.386719 0.15625,0.46875 0.101563,0.085937 0.265625,0.125 0.484375,0.125 V 0 H 0.1875 Z M 2.5,-4.59375 Z m 0,0"
           id="path8" />
      </g>
      <g
         id="glyph-1-4">
        <path
           d="m 2.296875,-4.578125 c 0.457031,0 0.859375,0.164063 1.203125,0.484375 0.34375,0.3125 0.515625,0.761719 0.515625,1.34375 H 0.90625 c 0.039062,0.75 0.210938,1.296875 0.515625,1.640625 0.3125,0.34375 0.679687,0.515625 1.109375,0.515625 0.332031,0 0.613281,-0.085938 0.84375,-0.265625 0.238281,-0.175781 0.457031,-0.425781 0.65625,-0.75 L 4.203125,-1.5625 c -0.125,0.417969 -0.375,0.804688 -0.75,1.15625 -0.367187,0.3554688 -0.8125,0.53125 -1.34375,0.53125 -0.605469,0 -1.074219,-0.226562 -1.40625,-0.6875 -0.335937,-0.46875 -0.5,-1.003906 -0.5,-1.609375 0,-0.65625 0.191406,-1.21875 0.578125,-1.6875 0.382812,-0.476563 0.890625,-0.71875 1.515625,-0.71875 z M 2,-4.21875 c -0.367188,0 -0.648438,0.164062 -0.84375,0.484375 C 1.050781,-3.554688 0.976562,-3.332031 0.9375,-3.0625 H 3 C 2.957031,-3.394531 2.894531,-3.640625 2.8125,-3.796875 2.644531,-4.078125 2.375,-4.21875 2,-4.21875 Z m 0.234375,-0.359375 z m 0,0"
           id="path9" />
      </g>
      <g
         id="glyph-1-5">
        <path
           d="m 2.375,-4.609375 c 0.226562,0 0.441406,0.054687 0.640625,0.15625 0.132813,0.0625 0.265625,0.15625 0.390625,0.28125 v -1.5625 c 0,-0.195313 -0.027344,-0.332031 -0.078125,-0.40625 C 3.285156,-6.210938 3.179688,-6.25 3.015625,-6.25 c -0.042969,0 -0.078125,0.00781 -0.109375,0.015625 -0.023438,0 -0.085938,0.00781 -0.1875,0.015625 V -6.390625 L 3.125,-6.484375 c 0.144531,-0.039063 0.289062,-0.082031 0.4375,-0.125 0.144531,-0.039063 0.273438,-0.082031 0.390625,-0.125 0.050781,-0.019531 0.132813,-0.050781 0.25,-0.09375 L 4.234375,-6.8125 4.21875,-6.296875 c 0,0.179687 -0.00781,0.367187 -0.015625,0.5625 0,0.199219 0,0.398437 0,0.59375 v 3.984375 c 0,0.210938 0.023437,0.355469 0.078125,0.4375 0.050781,0.085938 0.1875,0.125 0.40625,0.125 0.039062,0 0.078125,0 0.109375,0 0.039063,0 0.078125,0 0.109375,0 v 0.15625 c -0.023438,0 -0.257812,0.078125 -0.703125,0.234375 L 3.4375,0.09375 3.40625,0.046875 v -0.59375 C 3.21875,-0.347656 3.054688,-0.207031 2.921875,-0.125 2.679688,0.0195312 2.40625,0.09375 2.09375,0.09375 c -0.554688,0 -1,-0.210938 -1.34375,-0.640625 C 0.40625,-0.972656 0.234375,-1.46875 0.234375,-2.03125 c 0,-0.707031 0.203125,-1.3125 0.609375,-1.8125 C 1.257812,-4.351562 1.769531,-4.609375 2.375,-4.609375 Z M 2.546875,-0.4375 c 0.257813,0 0.46875,-0.070312 0.625,-0.21875 0.15625,-0.15625 0.234375,-0.296875 0.234375,-0.421875 v -2.09375 c 0,-0.425781 -0.117188,-0.726563 -0.34375,-0.90625 C 2.832031,-4.253906 2.609375,-4.34375 2.390625,-4.34375 c -0.40625,0 -0.726563,0.183594 -0.953125,0.546875 -0.230469,0.367187 -0.34375,0.8125 -0.34375,1.34375 0,0.523437 0.117188,0.992187 0.359375,1.40625 0.25,0.40625 0.613281,0.609375 1.09375,0.609375 z m 0,0"
           id="path10" />
      </g>
      <g
         id="glyph-1-6" />
      <g
         id="glyph-1-7">
        <path
           d="m 2.859375,-2.703125 c -0.367187,0.125 -0.671875,0.261719 -0.921875,0.40625 -0.46875,0.292969 -0.703125,0.621094 -0.703125,0.984375 0,0.304688 0.097656,0.523438 0.296875,0.65625 0.125,0.09375 0.265625,0.140625 0.421875,0.140625 0.21875,0 0.421875,-0.054687 0.609375,-0.171875 0.195312,-0.125 0.296875,-0.28125 0.296875,-0.46875 z m -2.5,1.734375 c 0,-0.476562 0.238281,-0.875 0.71875,-1.1875 0.300781,-0.195312 0.894531,-0.460938 1.78125,-0.796875 v -0.40625 c 0,-0.332031 -0.03125,-0.566406 -0.09375,-0.703125 -0.105469,-0.21875 -0.335937,-0.328125 -0.6875,-0.328125 -0.167969,0 -0.324219,0.042969 -0.46875,0.125 -0.15625,0.09375 -0.234375,0.21875 -0.234375,0.375 0,0.03125 0.00781,0.09375 0.03125,0.1875 0.019531,0.09375 0.03125,0.15625 0.03125,0.1875 0,0.179687 -0.0625,0.304687 -0.1875,0.375 -0.074219,0.042969 -0.15625,0.0625 -0.25,0.0625 -0.148438,0 -0.261719,-0.046875 -0.34375,-0.140625 C 0.582031,-3.3125 0.546875,-3.421875 0.546875,-3.546875 0.546875,-3.765625 0.6875,-4 0.96875,-4.25 1.25,-4.5 1.664062,-4.625 2.21875,-4.625 c 0.625,0 1.050781,0.203125 1.28125,0.609375 0.113281,0.230469 0.171875,0.558594 0.171875,0.984375 v 1.953125 c 0,0.1875 0.015625,0.320313 0.046875,0.390625 0.039062,0.125 0.128906,0.1875 0.265625,0.1875 0.070313,0 0.128906,-0.007812 0.171875,-0.03125 0.050781,-0.019531 0.140625,-0.070312 0.265625,-0.15625 v 0.25 C 4.316406,-0.3125 4.203125,-0.207031 4.078125,-0.125 3.898438,0 3.71875,0.0625 3.53125,0.0625 c -0.230469,0 -0.398438,-0.0703125 -0.5,-0.21875 C 2.9375,-0.300781 2.882812,-0.472656 2.875,-0.671875 2.632812,-0.453125 2.425781,-0.289062 2.25,-0.1875 1.945312,-0.0078125 1.664062,0.078125 1.40625,0.078125 c -0.28125,0 -0.527344,-0.0976562 -0.734375,-0.296875 -0.210937,-0.195312 -0.3125,-0.445312 -0.3125,-0.75 z m 1.875,-3.65625 z m 0,0"
           id="path11" />
      </g>
      <g
         id="glyph-1-8">
        <path
           d="m 0.046875,-0.15625 c 0.300781,-0.03125 0.5,-0.082031 0.59375,-0.15625 0.09375,-0.082031 0.140625,-0.253906 0.140625,-0.515625 V -3.03125 C 0.78125,-3.351562 0.75,-3.582031 0.6875,-3.71875 0.632812,-3.863281 0.523438,-3.9375 0.359375,-3.9375 c -0.03125,0 -0.074219,0.00781 -0.125,0.015625 C 0.179688,-3.910156 0.125,-3.898438 0.0625,-3.890625 v -0.15625 c 0.1875,-0.0625 0.378906,-0.125 0.578125,-0.1875 0.195313,-0.070313 0.332031,-0.125 0.40625,-0.15625 0.164063,-0.0625 0.332031,-0.132813 0.5,-0.21875 0.019531,0 0.03125,0.011719 0.03125,0.03125 0.00781,0.011719 0.015625,0.042969 0.015625,0.09375 v 0.8125 C 1.800781,-3.960938 2,-4.1875 2.1875,-4.34375 c 0.195312,-0.164062 0.398438,-0.25 0.609375,-0.25 0.164063,0 0.300781,0.054688 0.40625,0.15625 0.101563,0.09375 0.15625,0.214844 0.15625,0.359375 0,0.136719 -0.042969,0.25 -0.125,0.34375 -0.074219,0.085937 -0.171875,0.125 -0.296875,0.125 -0.117188,0 -0.234375,-0.054687 -0.359375,-0.171875 -0.125,-0.113281 -0.226563,-0.171875 -0.296875,-0.171875 -0.117188,0 -0.257812,0.09375 -0.421875,0.28125 -0.167969,0.1875 -0.25,0.382813 -0.25,0.578125 v 2.1875 c 0,0.28125 0.0625,0.480469 0.1875,0.59375 0.132813,0.105469 0.351563,0.15625 0.65625,0.15625 V 0 h -2.40625 z m 0,0"
           id="path12" />
      </g>
      <g
         id="glyph-1-9">
        <path
           d="m 5.34375,-1.859375 v 0.6875 H 0.296875 v -0.6875 z m 0,-2.015625 v 0.6875 H 0.296875 V -3.875 Z m 0,0"
           id="path13" />
      </g>
      <g
         id="glyph-1-10">
        <path
           d="m 2.484375,-4.609375 c 0.40625,0 0.753906,0.109375 1.046875,0.328125 0.300781,0.210938 0.453125,0.4375 0.453125,0.6875 0,0.105469 -0.042969,0.203125 -0.125,0.296875 -0.074219,0.09375 -0.1875,0.140625 -0.34375,0.140625 -0.117187,0 -0.214844,-0.035156 -0.296875,-0.109375 C 3.132812,-3.347656 3.070312,-3.46875 3.03125,-3.625 L 2.96875,-3.859375 C 2.925781,-4.023438 2.851562,-4.144531 2.75,-4.21875 2.644531,-4.289062 2.503906,-4.328125 2.328125,-4.328125 c -0.375,0 -0.695313,0.167969 -0.953125,0.5 -0.25,0.324219 -0.375,0.75 -0.375,1.28125 0,0.492187 0.140625,0.933594 0.421875,1.328125 0.28125,0.386719 0.660156,0.578125 1.140625,0.578125 0.34375,0 0.644531,-0.109375 0.90625,-0.328125 0.15625,-0.125 0.328125,-0.328125 0.515625,-0.609375 l 0.125,0.09375 C 3.929688,-1.097656 3.738281,-0.789062 3.53125,-0.5625 3.132812,-0.125 2.675781,0.09375 2.15625,0.09375 1.65625,0.09375 1.207031,-0.101562 0.8125,-0.5 0.425781,-0.90625 0.234375,-1.453125 0.234375,-2.140625 0.234375,-2.816406 0.445312,-3.394531 0.875,-3.875 1.300781,-4.363281 1.835938,-4.609375 2.484375,-4.609375 Z m -0.21875,0 z m 0,0"
           id="path14" />
      </g>
      <g
         id="glyph-1-11">
        <path
           d="m 0.25,-2.265625 c 0,-0.644531 0.203125,-1.191406 0.609375,-1.640625 0.414063,-0.445312 0.953125,-0.671875 1.609375,-0.671875 0.632812,0 1.164062,0.214844 1.59375,0.640625 0.425781,0.417969 0.640625,0.980469 0.640625,1.6875 0,0.648438 -0.210937,1.210938 -0.625,1.6875 -0.40625,0.4804688 -0.9375,0.71875 -1.59375,0.71875 -0.625,0 -1.15625,-0.2265625 -1.59375,-0.6875 C 0.460938,-0.988281 0.25,-1.566406 0.25,-2.265625 Z M 2.328125,-4.28125 c -0.261719,0 -0.484375,0.085938 -0.671875,0.25 -0.324219,0.292969 -0.484375,0.804688 -0.484375,1.53125 0,0.585938 0.128906,1.125 0.390625,1.625 0.257812,0.5 0.625,0.75 1.09375,0.75 0.363281,0 0.644531,-0.164062 0.84375,-0.5 0.195312,-0.34375 0.296875,-0.785156 0.296875,-1.328125 0,-0.5625 -0.132813,-1.085937 -0.390625,-1.578125 -0.25,-0.5 -0.609375,-0.75 -1.078125,-0.75 z M 2.5,-4.578125 Z m 0,0"
           id="path15" />
      </g>
      <g
         id="glyph-2-0">
        <path
           d="M 2.171875,-5.21875 V -5.515625 C 2.171875,-5.617188 2.15625,-5.691406 2.125,-5.734375 2.09375,-5.785156 2.035156,-5.8125 1.953125,-5.8125 c -0.042969,0 -0.101563,0.015625 -0.171875,0.046875 -0.074219,0.023437 -0.15625,0.054687 -0.25,0.09375 l -0.640625,0.3125 -0.109375,-0.1875 C 1.082031,-5.703125 1.410156,-5.875 1.765625,-6.0625 2.117188,-6.257812 2.546875,-6.5 3.046875,-6.78125 v 5.5625 c 0,0.480469 0.054687,0.773438 0.171875,0.875 0.113281,0.09375 0.40625,0.140625 0.875,0.140625 H 4.25 V 0 H 0.90625 v -0.203125 c 0.582031,0 0.9375,-0.054687 1.0625,-0.171875 0.132812,-0.113281 0.203125,-0.394531 0.203125,-0.84375 z m 0,0"
           id="path16" />
      </g>
      <g
         id="glyph-2-1" />
      <g
         id="glyph-2-2">
        <path
           d="M 0.515625,-4.78125 0.3125,-4.8125 c 0.132812,-0.625 0.390625,-1.097656 0.765625,-1.421875 0.382813,-0.332031 0.875,-0.5 1.46875,-0.5 0.539063,0 0.972656,0.15625 1.296875,0.46875 0.332031,0.304687 0.5,0.714844 0.5,1.234375 0,0.398438 -0.117188,0.792969 -0.34375,1.1875 -0.21875,0.398438 -0.640625,0.914062 -1.265625,1.546875 l -1.5,1.546875 h 1.9375 c 0.507813,0 0.851563,-0.050781 1.03125,-0.15625 0.175781,-0.101562 0.332031,-0.296875 0.46875,-0.578125 l 0.1875,0.0625 L 4.296875,0 h -4 V -0.1875 L 1.375,-1.296875 1.46875,-1.40625 C 2.820312,-2.820312 3.5,-3.875 3.5,-4.5625 3.5,-5.007812 3.367188,-5.363281 3.109375,-5.625 c -0.25,-0.257812 -0.589844,-0.390625 -1.015625,-0.390625 -0.367188,0 -0.683594,0.109375 -0.953125,0.328125 -0.273437,0.210938 -0.480469,0.511719 -0.625,0.90625 z m 0,0"
           id="path17" />
      </g>
      <g
         id="glyph-3-0">
        <path
           d="m 5.0625,-2.015625 h -4.625 v -0.6875 h 4.625 z m 0,0"
           id="path18" />
      </g>
      <g
         id="glyph-3-1">
        <path
           d="m 4.03125,-3.734375 c 0,0.0625 0,0.148437 0,0.25 C 4.007812,-2.773438 4,-2.28125 4,-2 v 0.40625 c 0,0.554688 0.023438,0.902344 0.078125,1.046875 0.0625,0.148437 0.164063,0.21875 0.3125,0.21875 0.1875,0 0.328125,-0.09375 0.421875,-0.28125 0.09375,-0.195313 0.144531,-0.5 0.15625,-0.90625 h 0.25 v 0.0625 c 0,0.53125 -0.089844,0.921875 -0.265625,1.171875 -0.167969,0.25 -0.433594,0.375 -0.796875,0.375 -0.375,0 -0.640625,-0.1289062 -0.796875,-0.390625 C 3.203125,-0.554688 3.125,-1.101562 3.125,-1.9375 c 0,-0.101562 0.00391,-0.363281 0.015625,-0.78125 0.00781,-0.425781 0.019531,-0.773438 0.03125,-1.046875 -0.125,0 -0.292969,0 -0.5,0 -0.210937,-0.00781 -0.464844,-0.019531 -0.765625,-0.03125 0,1.554687 -0.078125,2.589844 -0.234375,3.109375 C 1.523438,-0.164062 1.257812,0.09375 0.875,0.09375 0.632812,0.09375 0.457031,0 0.34375,-0.1875 0.226562,-0.375 0.171875,-0.660156 0.171875,-1.046875 v -0.1875 H 0.40625 c 0.007812,0.179687 0.039062,0.308594 0.09375,0.390625 0.0625,0.085938 0.15625,0.125 0.28125,0.125 0.269531,0 0.460938,-0.207031 0.578125,-0.625 C 1.472656,-1.757812 1.539062,-2.578125 1.5625,-3.796875 H 1.34375 c -0.25,0 -0.453125,0.046875 -0.609375,0.140625 C 0.585938,-3.570312 0.5,-3.441406 0.46875,-3.265625 H 0.234375 C 0.265625,-3.722656 0.394531,-4.039062 0.625,-4.21875 0.851562,-4.40625 1.253906,-4.5 1.828125,-4.5 c 0.113281,0 0.453125,0.015625 1.015625,0.046875 0.570312,0.023437 1.082031,0.03125 1.53125,0.03125 0.21875,0 0.378906,-0.023437 0.484375,-0.078125 0.113281,-0.050781 0.171875,-0.125 0.171875,-0.21875 h 0.234375 v 0.03125 c 0,0.335938 -0.078125,0.578125 -0.234375,0.734375 -0.15625,0.15625 -0.40625,0.234375 -0.75,0.234375 -0.0625,0 -0.109375,0 -0.140625,0 -0.03125,0 -0.070313,-0.00391 -0.109375,-0.015625 z m 0,0"
           id="path19" />
      </g>
      <g
         id="glyph-4-0">
        <path
           d="M 4.046875,-1.625 H 0.34375 v -0.53125 h 3.703125 z m 0,0"
           id="path20" />
      </g>
      <g
         id="glyph-5-0">
        <path
           d="M 1.734375,-4.171875 V -4.40625 c 0,-0.082031 -0.015625,-0.144531 -0.046875,-0.1875 -0.023438,-0.039062 -0.0625,-0.0625 -0.125,-0.0625 -0.03125,0 -0.078125,0.011719 -0.140625,0.03125 -0.054687,0.023438 -0.121094,0.054688 -0.203125,0.09375 l -0.5,0.234375 L 0.625,-4.4375 c 0.238281,-0.125 0.5,-0.257812 0.78125,-0.40625 C 1.695312,-5 2.039062,-5.191406 2.4375,-5.421875 v 4.4375 c 0,0.386719 0.039062,0.621094 0.125,0.703125 0.09375,0.085938 0.332031,0.125 0.71875,0.125 h 0.125 V 0 h -2.6875 v -0.15625 c 0.46875,0 0.753906,-0.046875 0.859375,-0.140625 0.101563,-0.09375 0.15625,-0.320313 0.15625,-0.6875 z m 0,0"
           id="path21" />
      </g>
      <g
         id="glyph-5-1">
        <path
           d="M 0.421875,-3.828125 0.25,-3.84375 c 0.101562,-0.5 0.304688,-0.878906 0.609375,-1.140625 0.3125,-0.269531 0.703125,-0.40625 1.171875,-0.40625 0.4375,0 0.785156,0.125 1.046875,0.375 0.269531,0.242187 0.40625,0.570313 0.40625,0.984375 0,0.324219 -0.09375,0.648438 -0.28125,0.96875 C 3.023438,-2.75 2.6875,-2.335938 2.1875,-1.828125 L 1,-0.609375 h 1.546875 c 0.40625,0 0.675781,-0.039063 0.8125,-0.125 0.144531,-0.082031 0.269531,-0.234375 0.375,-0.453125 L 3.890625,-1.140625 3.4375,0 H 0.234375 V -0.140625 L 1.09375,-1.046875 1.171875,-1.125 c 1.082031,-1.132812 1.625,-1.976562 1.625,-2.53125 0,-0.351562 -0.105469,-0.632812 -0.3125,-0.84375 -0.199219,-0.207031 -0.46875,-0.3125 -0.8125,-0.3125 -0.292969,0 -0.546875,0.089844 -0.765625,0.265625 -0.21875,0.167969 -0.382812,0.40625 -0.484375,0.71875 z m 0,0"
           id="path22" />
      </g>
    </g>
  </defs>
  <path
     fill-rule="nonzero"
     fill="#e6e6e6"
     fill-opacity="1"
     d="m 11.286669,53.037425 0.722656,-0.71875 0.71875,-0.722656 0.71875,-0.71875 0.722656,-0.71875 0.71875,-0.71875 0.71875,-0.714844 0.722657,-0.714844 1.4375,-1.421875 0.722656,-0.707031 1.4375,-1.40625 0.71875,-0.695313 0.722656,-0.695312 0.71875,-0.691406 0.71875,-0.683594 0.722656,-0.683594 0.71875,-0.675781 0.71875,-0.671875 0.722656,-0.667969 0.71875,-0.660156 0.71875,-0.652344 0.722657,-0.648437 0.71875,-0.644532 0.71875,-0.632812 0.722656,-0.628906 0.71875,-0.621094 0.71875,-0.613281 0.722656,-0.609375 0.71875,-0.597656 0.71875,-0.589844 0.722657,-0.582032 0.71875,-0.574218 0.71875,-0.5625 0.722656,-0.558594 0.71875,-0.542969 0.71875,-0.539062 0.71875,-0.527344 0.722656,-0.515625 0.71875,-0.507812 0.71875,-0.496094 0.722656,-0.484375 0.71875,-0.476563 0.71875,-0.464844 0.722656,-0.453124 0.71875,-0.441407 0.71875,-0.429687 0.722657,-0.417969 0.71875,-0.40625 0.71875,-0.394531 0.722656,-0.386719 0.71875,-0.367187 0.71875,-0.359376 0.722656,-0.34375 0.71875,-0.335937 0.71875,-0.320313 0.722657,-0.304687 0.71875,-0.292969 0.71875,-0.28125 0.722656,-0.269531 0.71875,-0.253906 0.71875,-0.238281 0.71875,-0.226563 0.722656,-0.214844 0.71875,-0.199219 0.71875,-0.183593 0.722656,-0.171875 0.71875,-0.15625 0.71875,-0.144532 0.722656,-0.128906 0.71875,-0.113281 0.71875,-0.101563 0.722657,-0.08594 0.71875,-0.07422 0.71875,-0.05469 0.722656,-0.04297 0.71875,-0.03125 0.71875,-0.01172 h 0.722656 l 0.71875,0.01172 0.71875,0.03125 0.722657,0.04297 0.71875,0.05469 0.71875,0.07422 0.722656,0.08594 0.71875,0.101563 0.71875,0.113281 0.71875,0.128906 0.722656,0.144532 0.71875,0.15625 0.71875,0.171875 0.722656,0.183593 0.71875,0.199219 0.71875,0.214844 0.722656,0.226563 0.71875,0.238281 0.71875,0.253906 0.722657,0.269531 0.71875,0.28125 0.71875,0.292969 0.722656,0.304687 0.71875,0.320313 0.71875,0.335937 0.722656,0.34375 0.71875,0.359376 0.71875,0.367187 0.722657,0.386719 0.71875,0.394531 0.71875,0.40625 0.722656,0.417969 0.71875,0.429687 0.71875,0.441407 0.71875,0.453124 0.722656,0.464844 0.71875,0.476563 0.71875,0.484375 0.722656,0.496094 0.718754,0.507812 0.71875,0.515625 0.72265,0.527344 0.71875,0.539062 0.71875,0.542969 0.72266,0.558594 0.71875,0.5625 0.71875,0.574218 0.72266,0.582032 0.71875,0.589844 0.71875,0.597656 0.72265,0.609375 0.71875,0.613281 0.71875,0.621094 0.72266,0.628906 0.71875,0.632812 0.71875,0.644532 0.72265,0.648437 0.71875,0.652344 0.71875,0.660156 0.71875,0.667969 0.72266,0.671875 0.71875,0.675781 0.71875,0.683594 0.72266,0.683594 0.71875,0.691406 0.71875,0.695312 0.72265,0.695313 1.4375,1.40625 0.72266,0.707031 1.4375,1.421875 0.72266,0.714844 0.71875,0.714844 0.71875,0.71875 0.72265,0.71875 0.71875,0.71875 0.71875,0.722656 0.72266,0.71875 0.71875,0.71875 0.71875,0.722656 0.72265,0.71875 1.4375,1.4375 0.71875,0.714844 0.72266,0.714844 1.4375,1.421875 0.72266,0.707031 1.4375,1.40625 0.72265,0.699219 1.4375,1.382812 0.72266,0.6875 0.71875,0.679688 0.71875,0.675781 0.72265,0.671875 0.71875,0.667969 0.71875,0.660156 0.72266,0.652344 0.71875,0.652343 0.71875,0.640626 0.72266,0.632812 0.71875,0.628906 0.71875,0.621094 0.72265,0.617188 0.71875,0.605468 0.71875,0.597656 0.71875,0.589844 0.72266,0.582032 0.71875,0.574218 0.71875,0.5625 0.72266,0.558594 0.71875,0.546875 0.71875,0.535156 0.72265,0.527344 0.71875,0.515625 0.71875,0.507812 0.72266,0.496094 0.71875,0.484375 0.71875,0.476563 V 53.037425"
     id="path23" />
  <path
     fill="none"
     stroke-width="0.9"
     stroke-linecap="butt"
     stroke-linejoin="miter"
     stroke="#000000"
     stroke-opacity="1"
     stroke-miterlimit="10"
     d="m 11.28667,53.03742 0.72266,-0.71875 0.71875,-0.72265 0.71875,-0.71875 0.72265,-0.71875 0.71875,-0.71875 0.71875,-0.71485 0.72266,-0.71484 1.4375,-1.42187 0.72265,-0.70704 1.4375,-1.40625 0.71875,-0.69531 0.72266,-0.69531 0.71875,-0.69141 0.71875,-0.68359 0.72266,-0.68359 0.71875,-0.67579 0.71875,-0.67187 0.72265,-0.66797 0.71875,-0.66015 0.71875,-0.65235 0.72266,-0.64844 0.71875,-0.64453 0.71875,-0.63281 0.72266,-0.62891 0.71875,-0.62109 0.71875,-0.61328 0.72265,-0.60938 0.71875,-0.59765 0.71875,-0.58985 0.72266,-0.58203 0.71875,-0.57422 0.71875,-0.5625 0.72265,-0.55859 0.71875,-0.54297 0.71875,-0.53906 0.71875,-0.52734 0.72266,-0.51563 0.71875,-0.50781 0.71875,-0.4961 0.72266,-0.48437 0.71875,-0.47656 0.71875,-0.46485 0.72265,-0.45312 0.71875,-0.44141 0.71875,-0.42969 0.72266,-0.41796 0.71875,-0.40625 0.71875,-0.39454 0.72266,-0.38671 0.71875,-0.36719 0.71875,-0.35938 0.72265,-0.34375 0.71875,-0.33593 0.71875,-0.32032 0.72266,-0.30468 0.71875,-0.29297 0.71875,-0.28125 0.72265,-0.26953 0.71875,-0.25391 0.71875,-0.23828 0.71875,-0.22656 0.72266,-0.21485 0.71875,-0.19922 0.71875,-0.18359 0.72266,-0.17188 0.71875,-0.15625 0.71875,-0.14453 0.72265,-0.1289 0.71875,-0.11328 0.71875,-0.10157 0.72266,-0.08593 0.71875,-0.07422 0.71875,-0.05469 0.72266,-0.04297 0.71875,-0.03125 0.71875,-0.01172 h 0.72265 l 0.71875,0.01172 0.71875,0.03125 0.72266,0.04297 0.71875,0.05469 0.71875,0.07422 0.72265,0.08593 0.71875,0.10157 0.71875,0.11328 0.71875,0.1289 0.72266,0.14453 0.71875,0.15625 0.71875,0.17188 0.72266,0.18359 0.71875,0.19922 0.71875,0.21485 0.72265,0.22656 0.71875,0.23828 0.71875,0.25391 0.72266,0.26953 0.71875,0.28125 0.71875,0.29297 0.72266,0.30468 0.71875,0.32032 0.71875,0.33593 0.72265,0.34375 0.71875,0.35938 0.71875,0.36719 0.72266,0.38671 0.71875,0.39454 0.71875,0.40625 0.72265,0.41796 0.71875,0.42969 0.71875,0.44141 0.71875,0.45312 0.72266,0.46485 0.71875,0.47656 0.71875,0.48437 0.72266,0.4961 0.71875,0.50781 0.71875,0.51563 0.72265,0.52734 0.71875,0.53906 0.71875,0.54297 0.72266,0.55859 0.71875,0.5625 0.71875,0.57422 0.72266,0.58203"
     id="path24" />
  <path
     fill="none"
     stroke-width="0.9"
     stroke-linecap="butt"
     stroke-linejoin="miter"
     stroke="#000000"
     stroke-opacity="1"
     stroke-miterlimit="10"
     d="m 102.00933,32.11164 0.71875,0.58985 0.71875,0.59765 0.72265,0.60938 0.71875,0.61328 0.71875,0.62109 0.72266,0.62891 0.71875,0.63281 0.71875,0.64453 0.72265,0.64844 0.71875,0.65235 0.71875,0.66015 0.71875,0.66797 0.72266,0.67187 0.71875,0.67579 0.71875,0.68359 0.72266,0.68359 0.71875,0.69141 0.71875,0.69531 0.72265,0.69531 1.4375,1.40625 0.72266,0.70704 1.4375,1.42187 0.72266,0.71484 0.71875,0.71485 0.71875,0.71875 0.72265,0.71875 0.71875,0.71875 0.71875,0.72265 0.72266,0.71875 0.71875,0.71875 0.71875,0.72266 0.72265,0.71875 1.4375,1.4375 0.71875,0.71484 0.72266,0.71485 1.4375,1.42187 0.72266,0.70703 1.4375,1.40625 0.72265,0.69922 1.4375,1.38282 0.72266,0.6875 0.71875,0.67968 0.71875,0.67578 0.72266,0.67188 0.71875,0.66797 0.71875,0.66015 0.72265,0.65235 0.71875,0.65234 0.71875,0.64063 0.72266,0.63281 0.71875,0.62891 0.71875,0.62109 0.72265,0.61719 0.71875,0.60547 0.71875,0.59765 0.71875,0.58985 0.72266,0.58203 0.71875,0.57422 0.71875,0.5625 0.72266,0.55859 0.71875,0.54687 0.71875,0.53516 0.72265,0.52734 0.71875,0.51563 0.71875,0.50781 0.72266,0.4961 0.71875,0.48437 0.71875,0.47656 0.72266,0.46485 0.71875,0.45312 0.71875,0.44141 0.72265,0.42969 0.71875,0.41796 0.71875,0.41016 0.72266,0.39453 0.71875,0.38281 0.71875,0.36719 0.72265,0.35938 0.71875,0.34765 0.71875,0.33203 0.71875,0.32032 0.72266,0.30468 0.71875,0.29688 0.71875,0.27734 0.72266,0.26953 0.71875,0.25391 0.71875,0.23828 0.72265,0.22656 0.71875,0.21485 0.71875,0.19922 0.72266,0.18359 0.71875,0.17188 0.71875,0.15625 0.72266,0.14453 0.71875,0.1289 0.71875,0.11328 0.72265,0.10157 0.71875,0.08593 0.71875,0.07422 0.72266,0.0586 0.71875,0.04297 0.71875,0.02734 0.72265,0.01562 h 0.71875 l 0.71875,-0.01562 0.71875,-0.02734 0.72266,-0.04297 0.71875,-0.0586 0.71875,-0.07422 0.72266,-0.08593 0.71875,-0.10157 0.71875,-0.11328 0.72265,-0.1289 0.71875,-0.14453 0.71875,-0.15625 0.72266,-0.17188 0.71875,-0.18359 0.71875,-0.19922 0.72266,-0.21485 0.71875,-0.22656 0.71875,-0.23828"
     id="path25" />
  <path
     fill="none"
     stroke-width="0.9"
     stroke-linecap="butt"
     stroke-linejoin="miter"
     stroke="#000000"
     stroke-opacity="1"
     stroke-miterlimit="10"
     d="m 193.44683,86.85383 0.72265,-0.25391 0.71875,-0.26953 0.71875,-0.27734 0.72266,-0.29688 0.71875,-0.30468 0.71875,-0.32032 0.72265,-0.33203 0.71875,-0.34765 0.71875,-0.35938 0.71875,-0.36719 0.72266,-0.38281 0.71875,-0.39453 0.71875,-0.41016 0.72266,-0.41796 0.71875,-0.42969 0.71875,-0.44141 0.72265,-0.45312 0.71875,-0.46485 0.71875,-0.47656 0.72266,-0.48437 0.71875,-0.4961 0.71875,-0.50781 0.72266,-0.51563 0.71875,-0.52734 0.71875,-0.53516 0.72265,-0.54687 0.71875,-0.55859 0.71875,-0.5625 0.72266,-0.57422 0.71875,-0.58203 0.71875,-0.58985 0.72265,-0.59765 0.71875,-0.60547 0.71875,-0.61719 0.71875,-0.62109 0.72266,-0.62891 0.71875,-0.63281 0.71875,-0.64063 0.72266,-0.65234 0.71875,-0.65235 0.71875,-0.66015 0.72265,-0.66797 0.71875,-0.67188 0.71875,-0.67578 0.72266,-0.67968 0.71875,-0.6875 0.71875,-0.69141 0.72266,-0.69141 0.71875,-0.69922 0.71875,-0.70312 0.72265,-0.70313 0.71875,-0.70703 0.71875,-0.71093 0.72266,-0.71094 1.4375,-1.42969 0.72265,-0.71875 1.4375,-1.4375 0.71875,-0.72266 0.72266,-0.71875 0.71875,-0.71875 0.71875,-0.72265 0.72266,-0.71875 1.4375,-1.4375 0.72265,-0.71485 0.71875,-0.71484 0.71875,-0.71094 0.72266,-0.71093 0.71875,-0.70704 0.71875,-0.70312 0.72266,-0.70313 1.4375,-1.39062 0.72265,-0.69141 1.4375,-1.36718 0.72266,-0.67579 0.71875,-0.67187 0.71875,-0.66797 0.72265,-0.66015 0.71875,-0.65235 0.71875,-0.64844 0.71875,-0.64453 0.72266,-0.63281 0.71875,-0.62891 0.71875,-0.62109 0.72266,-0.61328 0.71875,-0.60938 0.71875,-0.59765 0.72265,-0.58985"
     id="path26" />
  <path
     fill="none"
     stroke-width="0.144"
     stroke-linecap="butt"
     stroke-linejoin="miter"
     stroke="#000000"
     stroke-opacity="1"
     stroke-miterlimit="10"
     d="M 0.48979003,53.03742 H 265.44682"
     id="path27" />
  <path
     fill="none"
     stroke-width="0.144"
     stroke-linecap="butt"
     stroke-linejoin="miter"
     stroke="#000000"
     stroke-opacity="1"
     stroke-miterlimit="10"
     d="M 11.28667,96.23664 V 4.07649"
     id="path28" />
  <path
     fill-rule="nonzero"
     fill="#000000"
     fill-opacity="1"
     d="M 0.48979403,53.037425 H 266.88823 m -4,0 v -1 l 4,1 -4,1 v -1 h 4 M 11.286669,96.23664 V 2.638988 m 0,4 h -1 l 1,-4 1,4 h -1 v -4"
     id="path29" />
  <path
     fill="none"
     stroke-width="0.36"
     stroke-linecap="butt"
     stroke-linejoin="miter"
     stroke="#000000"
     stroke-opacity="1"
     stroke-miterlimit="10"
     d="M 11.28667,89.03742 H 9.12651 M 11.28667,17.03743 H 9.12651"
     id="path30" />
  <path
     fill="none"
     stroke-width="0.36"
     stroke-linecap="butt"
     stroke-linejoin="miter"
     stroke="#000000"
     stroke-opacity="1"
     stroke-miterlimit="10"
     d="M 112.08745,13.43586 79.68901,42.23664 h 0.71875 c 0,-0.39453 -0.32422,-0.71875 -0.71875,-0.71875 -0.39843,0 -0.72265,0.32422 -0.72265,0.71875 0,0.39844 0.32422,0.72266 0.72265,0.72266 0.39453,0 0.71875,-0.32422 0.71875,-0.72266 m 35.28125,-28.80078 27,46.80078 h 0.71875 c 0,-0.39453 -0.32422,-0.71875 -0.71875,-0.71875 -0.39843,0 -0.72265,0.32422 -0.72265,0.71875 0,0.39844 0.32422,0.72266 0.72265,0.72266 0.39453,0 0.71875,-0.32422 0.71875,-0.72266"
     id="path31" />
  <g
     fill="#000000"
     fill-opacity="1"
     id="g31"
     transform="translate(-4.10005,-3.7907)">
    <use
       xlink:href="#glyph-0-0"
       x="268.76801"
       y="66.468399"
       id="use31" />
  </g>
  <g
     fill="#000000"
     fill-opacity="1"
     id="g32"
     transform="translate(-4.10005,-3.7907)">
    <use
       xlink:href="#glyph-0-1"
       x="7.7080002"
       y="8.2282"
       id="use32" />
  </g>
  <g
     fill="#000000"
     fill-opacity="1"
     id="g33"
     transform="translate(-4.10005,-3.7907)">
    <use
       xlink:href="#glyph-0-2"
       x="156.33299"
       y="55.028198"
       id="use33" />
  </g>
  <g
     fill="#000000"
     fill-opacity="1"
     id="g47"
     transform="translate(-4.10005,-3.7907)">
    <use
       xlink:href="#glyph-1-0"
       x="89.187698"
       y="14.7083"
       id="use34" />
    <use
       xlink:href="#glyph-1-1"
       x="93.077698"
       y="14.7083"
       id="use35" />
    <use
       xlink:href="#glyph-1-2"
       x="95.857697"
       y="14.7083"
       id="use36" />
    <use
       xlink:href="#glyph-1-3"
       x="100.8577"
       y="14.7083"
       id="use37" />
    <use
       xlink:href="#glyph-1-4"
       x="105.8577"
       y="14.7083"
       id="use38" />
    <use
       xlink:href="#glyph-1-5"
       x="110.2977"
       y="14.7083"
       id="use39" />
    <use
       xlink:href="#glyph-1-6"
       x="115.2977"
       y="14.7083"
       id="use40" />
    <use
       xlink:href="#glyph-1-7"
       x="117.7977"
       y="14.7083"
       id="use41" />
    <use
       xlink:href="#glyph-1-8"
       x="122.2377"
       y="14.7083"
       id="use42" />
    <use
       xlink:href="#glyph-1-4"
       x="125.5677"
       y="14.7083"
       id="use43" />
    <use
       xlink:href="#glyph-1-7"
       x="130.00771"
       y="14.7083"
       id="use44" />
    <use
       xlink:href="#glyph-1-6"
       x="134.44769"
       y="14.7083"
       id="use45" />
    <use
       xlink:href="#glyph-1-9"
       x="136.94769"
       y="14.7083"
       id="use46" />
    <use
       xlink:href="#glyph-1-6"
       x="142.58771"
       y="14.7083"
       id="use47" />
  </g>
  <g
     fill="#000000"
     fill-opacity="1"
     id="g49"
     transform="translate(-4.10005,-3.7907)">
    <use
       xlink:href="#glyph-2-0"
       x="145.08771"
       y="14.7083"
       id="use48" />
    <use
       xlink:href="#glyph-2-1"
       x="150.08771"
       y="14.7083"
       id="use49" />
  </g>
  <g
     fill="#000000"
     fill-opacity="1"
     id="g50"
     transform="translate(-4.10005,-3.7907)">
    <use
       xlink:href="#glyph-3-0"
       x="152.58771"
       y="14.7083"
       id="use50" />
  </g>
  <g
     fill="#000000"
     fill-opacity="1"
     id="g51"
     transform="translate(-4.10005,-3.7907)">
    <use
       xlink:href="#glyph-2-1"
       x="158.0777"
       y="14.7083"
       id="use51" />
  </g>
  <g
     fill="#000000"
     fill-opacity="1"
     id="g54"
     transform="translate(-4.10005,-3.7907)">
    <use
       xlink:href="#glyph-1-10"
       x="160.5775"
       y="14.7083"
       id="use52" />
    <use
       xlink:href="#glyph-1-11"
       x="165.0175"
       y="14.7083"
       id="use53" />
    <use
       xlink:href="#glyph-1-0"
       x="170.0175"
       y="14.7083"
       id="use54" />
  </g>
  <g
     fill="#000000"
     fill-opacity="1"
     id="g55"
     transform="translate(-4.10005,-3.7907)">
    <use
       xlink:href="#glyph-0-2"
       x="176.06731"
       y="14.7083"
       id="use55" />
  </g>
  <g
     fill="#000000"
     fill-opacity="1"
     id="g56"
     transform="translate(-4.10005,-3.7907)">
    <use
       xlink:href="#glyph-4-0"
       x="3.7563"
       y="95.708298"
       id="use56" />
  </g>
  <g
     fill="#000000"
     fill-opacity="1"
     id="g57"
     transform="translate(-4.10005,-3.7907)">
    <use
       xlink:href="#glyph-5-0"
       x="8.1483002"
       y="95.708298"
       id="use57" />
  </g>
  <g
     fill="#000000"
     fill-opacity="1"
     id="g58"
     transform="translate(-4.10005,-3.7907)">
    <use
       xlink:href="#glyph-5-0"
       x="8.1480999"
       y="23.7083"
       id="use58" />
  </g>
  <g
     fill="#000000"
     fill-opacity="1"
     id="g59"
     transform="translate(-4.10005,-3.7907)">
    <use
       xlink:href="#glyph-3-1"
       x="123.2981"
       y="66.828201"
       id="use59" />
  </g>
  <g
     fill="#000000"
     fill-opacity="1"
     id="g60"
     transform="translate(-4.10005,-3.7907)">
    <use
       xlink:href="#glyph-2-2"
       x="241.46809"
       y="66.828201"
       id="use60" />
  </g>
  <g
     fill="#000000"
     fill-opacity="1"
     id="g61"
     transform="translate(-4.10005,-3.7907)">
    <use
       xlink:href="#glyph-3-1"
       x="246.46809"
       y="66.828201"
       id="use61" />
  </g>
  <g
     fill="#000000"
     fill-opacity="1"
     id="g65"
     transform="translate(-4.10005,-3.7907)">
    <use
       xlink:href="#glyph-0-1"
       x="242.1881"
       y="32.301998"
       id="use62" />
    <use
       xlink:href="#glyph-0-3"
       x="246.6281"
       y="32.301998"
       id="use63" />
    <use
       xlink:href="#glyph-0-4"
       x="249.1281"
       y="32.301998"
       id="use64" />
    <use
       xlink:href="#glyph-0-3"
       x="255.8781"
       y="32.301998"
       id="use65" />
  </g>
  <g
     fill="#000000"
     fill-opacity="1"
     id="g68"
     transform="translate(-4.10005,-3.7907)">
    <use
       xlink:href="#glyph-1-0"
       x="258.3779"
       y="32.301998"
       id="use66" />
    <use
       xlink:href="#glyph-1-1"
       x="262.26791"
       y="32.301998"
       id="use67" />
    <use
       xlink:href="#glyph-1-3"
       x="265.04791"
       y="32.301998"
       id="use68" />
  </g>
  <g
     fill="#000000"
     fill-opacity="1"
     id="g69"
     transform="translate(-4.10005,-3.7907)">
    <use
       xlink:href="#glyph-0-0"
       x="272.20801"
       y="32.301998"
       id="use69" />
  </g>
  <path
     fill="none"
     stroke-width="0.9"
     stroke-linecap="butt"
     stroke-linejoin="miter"
     stroke="#000000"
     stroke-opacity="1"
     stroke-miterlimit="10"
     d="m 11.28667,197.03742 0.72266,-0.008 0.71875,-0.0195 0.71875,-0.0391 0.72265,-0.0469 0.71875,-0.0664 0.71875,-0.0781 0.72266,-0.0937 0.71875,-0.10937 0.71875,-0.1211 0.72265,-0.13672 0.71875,-0.14843 0.71875,-0.16407 0.71875,-0.17968 0.72266,-0.19141 0.71875,-0.20703 0.71875,-0.21875 0.72266,-0.23438 0.71875,-0.24609 0.71875,-0.26172 0.72265,-0.27344 0.71875,-0.28906 0.71875,-0.30078 0.72266,-0.3125 0.71875,-0.32422 0.71875,-0.33984 0.72266,-0.35156 0.71875,-0.36719 0.71875,-0.375 0.72265,-0.39063 0.71875,-0.39843 0.71875,-0.41407 0.72266,-0.42187 0.71875,-0.4375 0.71875,-0.44922 0.72265,-0.45703 0.71875,-0.47266 0.71875,-0.47656 0.71875,-0.49219 0.72266,-0.5039 0.71875,-0.51172 0.71875,-0.51953 0.72266,-0.53516 0.71875,-0.53906 0.71875,-0.55078 0.72265,-0.5586 0.71875,-0.57031 0.71875,-0.57813 0.72266,-0.58593 0.71875,-0.59375 0.71875,-0.60547 0.72266,-0.60938 0.71875,-0.61718 0.71875,-0.625 0.72265,-0.63282 0.71875,-0.63672 0.71875,-0.64453 0.72266,-0.65234 0.71875,-0.66016 0.71875,-0.66406 0.72265,-0.66797 0.71875,-0.67187 0.71875,-0.67969 0.71875,-0.68359 0.72266,-0.6875 1.4375,-1.39063 0.72266,-0.69922 0.71875,-0.70312 0.71875,-0.70703 0.72265,-0.70704 0.71875,-0.71093 0.71875,-0.71485 0.72266,-0.71484 0.71875,-0.71484 0.71875,-0.71875 0.72266,-0.71875 0.71875,-0.71875 0.71875,-0.72266 0.72265,-0.71875 0.71875,-0.71875 0.71875,-0.72266 0.72266,-0.71875 0.71875,-0.71875 0.71875,-0.71484 0.72265,-0.71484 0.71875,-0.71485 0.71875,-0.71094 0.71875,-0.70703 0.72266,-0.70703 0.71875,-0.70312 0.71875,-0.69922 0.72266,-0.69531 1.4375,-1.38282 0.72265,-0.68359 0.71875,-0.67969 0.71875,-0.67187 0.72266,-0.67188 1.4375,-1.32031 0.72266,-0.64844 0.71875,-0.64844 0.71875,-0.63671 0.72265,-0.63282 0.71875,-0.625 0.71875,-0.61718 0.72266,-0.61329 0.71875,-0.60156 0.71875,-0.59375 0.72265,-0.58594 0.71875,-0.57812 0.71875,-0.56641 0.71875,-0.5625 0.72266,-0.55078 0.71875,-0.53906 0.71875,-0.53125 0.72266,-0.52344 0.71875,-0.51172 0.71875,-0.5039 0.72265,-0.48828 0.71875,-0.48047 0.71875,-0.47266 0.72266,-0.45703 0.71875,-0.44922 0.71875,-0.43359 0.72266,-0.42578"
     id="path69" />
  <path
     fill="none"
     stroke-width="0.9"
     stroke-linecap="butt"
     stroke-linejoin="miter"
     stroke="#000000"
     stroke-opacity="1"
     stroke-miterlimit="10"
     d="m 102.00933,131.74446 0.71875,-0.41407 0.71875,-0.39843 0.72265,-0.39063 0.71875,-0.375 0.71875,-0.36719 0.72266,-0.34765 0.71875,-0.33985 0.71875,-0.32812 0.72265,-0.3125 0.71875,-0.30078 0.71875,-0.28907 0.71875,-0.27343 0.72266,-0.26172 0.71875,-0.2461 0.71875,-0.23046 0.72266,-0.22266 0.71875,-0.20703 0.71875,-0.19141 0.72265,-0.17578 0.71875,-0.16406 0.71875,-0.15235 0.72266,-0.13671 0.71875,-0.1211 0.71875,-0.10937 0.72266,-0.0937 0.71875,-0.0781 0.71875,-0.0625 0.72265,-0.0508 0.71875,-0.0391 0.71875,-0.0195 0.72266,-0.008 0.71875,0.008 0.71875,0.0195 0.72265,0.0391 0.71875,0.0508 0.71875,0.0625 0.71875,0.0781 0.72266,0.0937 0.71875,0.10937 0.71875,0.1211 0.72266,0.13671 0.71875,0.15235 0.71875,0.16406 0.72265,0.17578 0.71875,0.19141 0.71875,0.20703 0.72266,0.22266 0.71875,0.23046 0.71875,0.2461 0.72266,0.26172 0.71875,0.27343 0.71875,0.28907 0.72265,0.30078 0.71875,0.3125 0.71875,0.32812 0.72266,0.33985 0.71875,0.34765 0.71875,0.36719 0.72265,0.375 0.71875,0.39063 0.71875,0.39843 0.71875,0.41407 0.72266,0.42578 0.71875,0.43359 0.71875,0.44922 0.72266,0.45703 0.71875,0.47266 0.71875,0.48047 0.72265,0.48828 0.71875,0.5039 0.71875,0.51172 0.72266,0.52344 0.71875,0.53125 0.71875,0.53906 0.72266,0.55078 0.71875,0.5625 0.71875,0.56641 0.72265,0.57812 0.71875,0.58594 0.71875,0.59375 0.72266,0.60156 0.71875,0.61329 0.71875,0.61718 0.72265,0.625 0.71875,0.63282 0.71875,0.63671 0.71875,0.64844 0.72266,0.64844 1.4375,1.32031 0.72266,0.67188 0.71875,0.67187 0.71875,0.67969 0.72265,0.68359 1.4375,1.38282 0.72266,0.69531 0.71875,0.69922 0.71875,0.70312 0.72266,0.70703 0.71875,0.70703 0.71875,0.71094 0.72265,0.71485 1.4375,1.42968 0.72266,0.71875 0.71875,0.71875 0.71875,0.72266 0.72265,0.71875 0.71875,0.71875 0.71875,0.72266 0.71875,0.71875 0.72266,0.71875 0.71875,0.71875 0.71875,0.71484 0.72266,0.71484 0.71875,0.71485 0.71875,0.71093 0.72265,0.70704 0.71875,0.70703 0.71875,0.70312 0.72266,0.69922 1.4375,1.39063 0.72266,0.6875 0.71875,0.68359 0.71875,0.67969"
     id="path70" />
  <path
     fill="none"
     stroke-width="0.9"
     stroke-linecap="butt"
     stroke-linejoin="miter"
     stroke="#000000"
     stroke-opacity="1"
     stroke-miterlimit="10"
     d="m 193.44683,173.38899 0.72265,0.67187 0.71875,0.66797 0.71875,0.66406 0.72266,0.66016 0.71875,0.65234 0.71875,0.64453 0.72265,0.63672 0.71875,0.63282 0.71875,0.625 0.71875,0.61718 0.72266,0.60938 0.71875,0.60547 0.71875,0.59375 0.72266,0.58593 0.71875,0.57813 0.71875,0.57031 0.72265,0.5586 0.71875,0.55078 0.71875,0.53906 0.72266,0.53516 0.71875,0.51953 0.71875,0.51172 0.72266,0.5039 0.71875,0.49219 0.71875,0.47656 0.72265,0.47266 0.71875,0.45703 0.71875,0.44922 0.72266,0.4375 0.71875,0.42187 0.71875,0.41407 0.72265,0.39843 0.71875,0.39063 0.71875,0.375 0.71875,0.36719 0.72266,0.35156 0.71875,0.33984 0.71875,0.32422 0.72266,0.3125 0.71875,0.30078 0.71875,0.28906 0.72265,0.27344 0.71875,0.26172 0.71875,0.24609 0.72266,0.23438 0.71875,0.21875 0.71875,0.20703 0.72266,0.19141 0.71875,0.17968 0.71875,0.16407 0.72265,0.14843 0.71875,0.13672 0.71875,0.1211 0.72266,0.10937 0.71875,0.0937 0.71875,0.0781 0.72265,0.0664 0.71875,0.0469 0.71875,0.0391 0.71875,0.0195 0.72266,0.008 0.71875,-0.008 0.71875,-0.0195 0.72266,-0.0391 0.71875,-0.0469 0.71875,-0.0664 0.72265,-0.0781 0.71875,-0.0937 0.71875,-0.10937 0.72266,-0.1211 0.71875,-0.13672 0.71875,-0.14843 0.72266,-0.16407 0.71875,-0.17968 0.71875,-0.19141 0.72265,-0.20703 0.71875,-0.21875 0.71875,-0.23438 0.72266,-0.24609 0.71875,-0.26172 0.71875,-0.27344 0.72265,-0.28906 0.71875,-0.30078 0.71875,-0.3125 0.71875,-0.32422 0.72266,-0.33984 0.71875,-0.35156 0.71875,-0.36719 0.72266,-0.375 0.71875,-0.39063 0.71875,-0.39843 0.72265,-0.41407"
     id="path71" />
  <path
     fill="none"
     stroke-width="0.144"
     stroke-linecap="butt"
     stroke-linejoin="miter"
     stroke="#000000"
     stroke-opacity="1"
     stroke-miterlimit="10"
     d="M 0.48979003,197.03742 H 265.44682"
     id="path72" />
  <path
     fill="none"
     stroke-width="0.144"
     stroke-linecap="butt"
     stroke-linejoin="miter"
     stroke="#000000"
     stroke-opacity="1"
     stroke-miterlimit="10"
     d="M 11.28667,204.23664 V 112.07649"
     id="path73" />
  <path
     fill-rule="nonzero"
     fill="#000000"
     fill-opacity="1"
     d="M 0.48979403,197.03742 H 266.88823 m -4,0 v -1 l 4,1 -4,1 v -1 h 4 m -255.601561,7.19922 v -93.59765 m 0,4 h -1 l 1,-4 1,4 h -1 v -4"
     id="path74" />
  <path
     fill="none"
     stroke-width="0.36"
     stroke-linecap="butt"
     stroke-linejoin="miter"
     stroke="#000000"
     stroke-opacity="1"
     stroke-miterlimit="10"
     d="m 155.28667,197.03742 v -59.47656 m -144,23.47656 H 9.12651 m 2.16016,-36 H 9.12651 m 115.20313,72 v 2.16016 m 113.03906,-2.16016 v 2.16016"
     id="path75" />
  <g
     fill="#000000"
     fill-opacity="1"
     id="g75"
     transform="translate(-4.10005,-3.7907)">
    <use
       xlink:href="#glyph-0-0"
       x="268.76801"
       y="210.4684"
       id="use75" />
  </g>
  <g
     fill="#000000"
     fill-opacity="1"
     id="g76"
     transform="translate(-4.10005,-3.7907)">
    <use
       xlink:href="#glyph-0-1"
       x="7.7080002"
       y="116.2282"
       id="use76" />
  </g>
  <g
     fill="#000000"
     fill-opacity="1"
     id="g77"
     transform="translate(-4.10005,-3.7907)">
    <use
       xlink:href="#glyph-0-2"
       x="156.33299"
       y="210.8282"
       id="use77" />
  </g>
  <g
     fill="#000000"
     fill-opacity="1"
     id="g78"
     transform="translate(-4.10005,-3.7907)">
    <use
       xlink:href="#glyph-5-1"
       x="8.1479998"
       y="131.7083"
       id="use78" />
  </g>
  <g
     fill="#000000"
     fill-opacity="1"
     id="g79"
     transform="translate(-4.10005,-3.7907)">
    <use
       xlink:href="#glyph-5-0"
       x="8.1479998"
       y="167.7083"
       id="use79" />
  </g>
  <g
     fill="#000000"
     fill-opacity="1"
     id="g80"
     transform="translate(-4.10005,-3.7907)">
    <use
       xlink:href="#glyph-3-1"
       x="125.683"
       y="210.8282"
       id="use80" />
  </g>
  <g
     fill="#000000"
     fill-opacity="1"
     id="g81"
     transform="translate(-4.10005,-3.7907)">
    <use
       xlink:href="#glyph-2-2"
       x="236.22301"
       y="210.8282"
       id="use81" />
  </g>
  <g
     fill="#000000"
     fill-opacity="1"
     id="g82"
     transform="translate(-4.10005,-3.7907)">
    <use
       xlink:href="#glyph-3-1"
       x="241.22301"
       y="210.8282"
       id="use82" />
  </g>
  <g
     fill="#000000"
     fill-opacity="1"
     id="g86"
     transform="translate(-4.10005,-3.7907)">
    <use
       xlink:href="#glyph-0-1"
       x="242.188"
       y="190.52161"
       id="use83" />
    <use
       xlink:href="#glyph-0-3"
       x="246.62801"
       y="190.52161"
       id="use84" />
    <use
       xlink:href="#glyph-0-4"
       x="249.12801"
       y="190.52161"
       id="use85" />
    <use
       xlink:href="#glyph-0-3"
       x="255.87801"
       y="190.52161"
       id="use86" />
  </g>
  <g
     fill="#000000"
     fill-opacity="1"
     id="g88"
     transform="translate(-4.10005,-3.7907)">
    <use
       xlink:href="#glyph-2-0"
       x="258.37781"
       y="190.52161"
       id="use87" />
    <use
       xlink:href="#glyph-2-1"
       x="263.37781"
       y="190.52161"
       id="use88" />
  </g>
  <g
     fill="#000000"
     fill-opacity="1"
     id="g89"
     transform="translate(-4.10005,-3.7907)">
    <use
       xlink:href="#glyph-3-0"
       x="265.87781"
       y="190.52161"
       id="use89" />
  </g>
  <g
     fill="#000000"
     fill-opacity="1"
     id="g90"
     transform="translate(-4.10005,-3.7907)">
    <use
       xlink:href="#glyph-2-1"
       x="271.3678"
       y="190.52161"
       id="use90" />
  </g>
  <g
     fill="#000000"
     fill-opacity="1"
     id="g93"
     transform="translate(-4.10005,-3.7907)">
    <use
       xlink:href="#glyph-1-10"
       x="273.86761"
       y="190.52161"
       id="use91" />
    <use
       xlink:href="#glyph-1-11"
       x="278.30759"
       y="190.52161"
       id="use92" />
    <use
       xlink:href="#glyph-1-0"
       x="283.30759"
       y="190.52161"
       id="use93" />
  </g>
  <g
     fill="#000000"
     fill-opacity="1"
     id="g94"
     transform="translate(-4.10005,-3.7907)">
    <use
       xlink:href="#glyph-0-0"
       x="289.35739"
       y="190.52161"
       id="use94" />
  </g>
  <g
     fill="#000000"
     fill-opacity="1"
     id="g96"
     transform="translate(-4.10005,-3.7907)">
    <use
       xlink:href="#glyph-2-0"
       x="118.6984"
       y="173.8282"
       id="use95" />
    <use
       xlink:href="#glyph-2-1"
       x="123.6984"
       y="173.8282"
       id="use96" />
  </g>
  <g
     fill="#000000"
     fill-opacity="1"
     id="g97"
     transform="translate(-4.10005,-3.7907)">
    <use
       xlink:href="#glyph-3-0"
       x="126.1984"
       y="173.8282"
       id="use97" />
  </g>
  <g
     fill="#000000"
     fill-opacity="1"
     id="g98"
     transform="translate(-4.10005,-3.7907)">
    <use
       xlink:href="#glyph-2-1"
       x="131.6884"
       y="173.8282"
       id="use98" />
  </g>
  <g
     fill="#000000"
     fill-opacity="1"
     id="g101"
     transform="translate(-4.10005,-3.7907)">
    <use
       xlink:href="#glyph-1-10"
       x="134.1882"
       y="173.8282"
       id="use99" />
    <use
       xlink:href="#glyph-1-11"
       x="138.6282"
       y="173.8282"
       id="use100" />
    <use
       xlink:href="#glyph-1-0"
       x="143.6282"
       y="173.8282"
       id="use101" />
  </g>
  <g
     fill="#000000"
     fill-opacity="1"
     id="g102"
     transform="translate(-4.10005,-3.7907)">
    <use
       xlink:href="#glyph-0-2"
       x="149.67799"
       y="173.8282"
       id="use102" />
  </g>
</svg>
