<?xml version="1.0" encoding="UTF-8" standalone="no"?>
<svg
   width="107.30125pt"
   height="103.43814pt"
   viewBox="0 0 107.30125 103.43814"
   version="1.1"
   id="svg27"
   sodipodi:docname="ch6_yx_graph.pdf"
   xmlns:inkscape="http://www.inkscape.org/namespaces/inkscape"
   xmlns:sodipodi="http://sodipodi.sourceforge.net/DTD/sodipodi-0.dtd"
   xmlns:xlink="http://www.w3.org/1999/xlink"
   xmlns="http://www.w3.org/2000/svg"
   xmlns:svg="http://www.w3.org/2000/svg">
  <sodipodi:namedview
     id="namedview27"
     pagecolor="#ffffff"
     bordercolor="#000000"
     borderopacity="0.25"
     inkscape:showpageshadow="2"
     inkscape:pageopacity="0.0"
     inkscape:pagecheckerboard="0"
     inkscape:deskcolor="#d1d1d1"
     inkscape:document-units="pt" />
  <defs
     id="defs9">
    <g
       id="g8">
      <g
         id="glyph-0-0">
        <path
           d="m -0.28125,-0.328125 c 0,-0.125 0.042969,-0.210937 0.125,-0.265625 0.0742188,-0.0625 0.15234375,-0.09375 0.234375,-0.09375 0.039063,0 0.078125,0.007812 0.109375,0.015625 0.039062,0.011719 0.085938,0.03125 0.140625,0.0625 L 0.5,-0.515625 c 0.019531,0.011719 0.039062,0.023437 0.0625,0.03125 0.019531,0 0.039062,0 0.0625,0 0.082031,0 0.144531,-0.019531 0.1875,-0.0625 0.050781,-0.039063 0.164062,-0.179687 0.34375,-0.421875 0.125,-0.164062 0.398438,-0.554688 0.828125,-1.171875 0,-0.019531 -0.042969,-0.191406 -0.125,-0.515625 C 1.785156,-2.988281 1.71875,-3.269531 1.65625,-3.5 1.59375,-3.726562 1.535156,-3.878906 1.484375,-3.953125 1.441406,-4.023438 1.351562,-4.0625 1.21875,-4.0625 c -0.042969,0 -0.132812,0.015625 -0.265625,0.046875 -0.085937,0.023437 -0.179687,0.042969 -0.28125,0.0625 l -0.03125,-0.140625 0.53125,-0.1875 C 1.316406,-4.332031 1.445312,-4.367188 1.5625,-4.390625 1.6875,-4.421875 1.789062,-4.4375 1.875,-4.4375 c 0.132812,0 0.234375,0.039062 0.296875,0.109375 0.101563,0.136719 0.191406,0.398437 0.265625,0.78125 L 2.546875,-3 c 0.289063,-0.445312 0.519531,-0.757812 0.6875,-0.9375 0.144531,-0.164062 0.28125,-0.289062 0.40625,-0.375 0.132813,-0.082031 0.257813,-0.125 0.375,-0.125 0.113281,0 0.203125,0.015625 0.265625,0.046875 0.125,0.0625 0.1875,0.179687 0.1875,0.34375 0,0.105469 -0.03125,0.1875 -0.09375,0.25 -0.0625,0.0625 -0.140625,0.09375 -0.234375,0.09375 -0.042969,0 -0.078125,0 -0.109375,0 C 4,-3.710938 3.96875,-3.726562 3.9375,-3.75 L 3.796875,-3.796875 C 3.765625,-3.816406 3.734375,-3.832031 3.703125,-3.84375 3.671875,-3.851562 3.644531,-3.859375 3.625,-3.859375 c -0.148438,0 -0.351562,0.195313 -0.609375,0.578125 -0.261719,0.375 -0.390625,0.589844 -0.390625,0.640625 0,0.054687 0.03125,0.214844 0.09375,0.484375 0.0625,0.261719 0.128906,0.542969 0.203125,0.84375 0.0625,0.28125 0.113281,0.480469 0.15625,0.59375 0.070313,0.179688 0.15625,0.265625 0.25,0.265625 0.09375,0 0.179687,-0.046875 0.265625,-0.140625 0.09375,-0.101562 0.234375,-0.285156 0.421875,-0.546875 l 0.140625,0.09375 c -0.148438,0.25 -0.292969,0.464844 -0.4375,0.640625 C 3.4375,-0.0625 3.164062,0.109375 2.90625,0.109375 2.738281,0.109375 2.609375,0.0273438 2.515625,-0.125 2.460938,-0.21875 2.410156,-0.367188 2.359375,-0.578125 L 2.0625,-1.78125 l -1,1.3125 C 0.863281,-0.238281 0.707031,-0.0820312 0.59375,0 0.488281,0.0703125 0.359375,0.109375 0.203125,0.109375 c -0.20703125,0 -0.347656,-0.0703125 -0.421875,-0.203125 -0.039062,-0.0625 -0.0625,-0.140625 -0.0625,-0.234375 z m 0,0"
           id="path1" />
      </g>
      <g
         id="glyph-0-1">
        <path
           d="m -0.265625,1.625 c 0,-0.105469 0.039063,-0.199219 0.109375,-0.28125 C -0.09375,1.269531 0,1.234375 0.125,1.234375 c 0.082031,0 0.15625,0.015625 0.21875,0.046875 0.0625,0.03125 0.125,0.078125 0.1875,0.140625 L 0.59375,1.46875 C 0.613281,1.488281 0.632812,1.5 0.65625,1.5 0.6875,1.507812 0.71875,1.515625 0.75,1.515625 c 0.15625,0 0.410156,-0.214844 0.765625,-0.640625 0.351563,-0.417969 0.53125,-0.71875 0.53125,-0.90625 0,-0.1875 -0.0625,-0.546875 -0.1875,-1.078125 C 1.742188,-1.640625 1.628906,-2.113281 1.515625,-2.53125 1.347656,-3.113281 1.195312,-3.507812 1.0625,-3.71875 c -0.125,-0.207031 -0.320312,-0.3125 -0.578125,-0.3125 -0.023437,0 -0.058594,0 -0.109375,0 -0.042969,0 -0.121094,0.011719 -0.234375,0.03125 v -0.171875 l 1.34375,-0.25 h 0.09375 c 0.082031,-0.00781 0.238281,0.355469 0.46875,1.09375 0.207031,0.667969 0.335937,1.152344 0.390625,1.453125 l 0.203125,1.15625 c 0.34375,-0.570312 0.59375,-1.007812 0.75,-1.3125 0.3125,-0.601562 0.46875,-1.023438 0.46875,-1.265625 0,-0.050781 -0.011719,-0.101563 -0.03125,-0.15625 C 3.804688,-3.515625 3.757812,-3.5625 3.6875,-3.59375 L 3.609375,-3.640625 c -0.054687,-0.03125 -0.117187,-0.078125 -0.1875,-0.140625 -0.0625,-0.070312 -0.09375,-0.171875 -0.09375,-0.296875 0,-0.101563 0.03125,-0.1875 0.09375,-0.25 0.0625,-0.070313 0.160156,-0.109375 0.296875,-0.109375 0.15625,0 0.285156,0.054688 0.390625,0.15625 0.101563,0.09375 0.15625,0.257812 0.15625,0.484375 0,0.34375 -0.195313,0.902344 -0.578125,1.671875 C 3.394531,-1.53125 3.066406,-0.957031 2.703125,-0.40625 2.253906,0.277344 1.863281,0.8125 1.53125,1.1875 1.019531,1.78125 0.59375,2.078125 0.25,2.078125 c -0.136719,0 -0.25390625,-0.042969 -0.359375,-0.125 C -0.210938,1.867188 -0.265625,1.757812 -0.265625,1.625 Z m 0,0"
           id="path2" />
      </g>
      <g
         id="glyph-1-0">
        <path
           d="M 0.96875,1.34375 C 0.882812,1.257812 0.835938,1.164062 0.828125,1.0625 0.828125,0.96875 0.875,0.875 0.96875,0.78125 1.019531,0.726562 1.078125,0.6875 1.140625,0.65625 1.210938,0.632812 1.289062,0.625 1.375,0.625 L 1.453125,0.609375 C 1.484375,0.617188 1.507812,0.613281 1.53125,0.59375 1.5625,0.582031 1.585938,0.566406 1.609375,0.546875 c 0.113281,-0.117187 0.144531,-0.4492188 0.09375,-1 C 1.648438,-1.003906 1.5625,-1.34375 1.4375,-1.46875 1.300781,-1.601562 1,-1.8125 0.53125,-2.09375 c -0.4609375,-0.289062 -0.875,-0.550781 -1.25,-0.78125 -0.53125,-0.28125 -0.910156,-0.445312 -1.140625,-0.5 -0.238281,-0.0625 -0.453125,0 -0.640625,0.1875 -0.00781,0.011719 -0.03125,0.039062 -0.0625,0.078125 -0.039062,0.03125 -0.097656,0.09375 -0.171875,0.1875 l -0.125,-0.125 0.78125,-1.125 0.0625,-0.0625 c 0.054687,-0.070313 0.421875,0.070313 1.109375,0.421875 0.625,0.335938 1.054688,0.589844 1.296875,0.765625 L 1.34375,-2.375 C 1.195312,-3.019531 1.066406,-3.503906 0.953125,-3.828125 0.753906,-4.484375 0.570312,-4.894531 0.40625,-5.0625 0.363281,-5.101562 0.3125,-5.132812 0.25,-5.15625 0.195312,-5.1875 0.132812,-5.1875 0.0625,-5.15625 L -0.03125,-5.125 c -0.0507812,0.011719 -0.125,0.015625 -0.21875,0.015625 -0.09375,0 -0.1875,-0.046875 -0.28125,-0.140625 -0.070312,-0.070312 -0.109375,-0.148438 -0.109375,-0.234375 -0.007813,-0.09375 0.03125,-0.1875 0.125,-0.28125 0.117187,-0.113281 0.246094,-0.171875 0.390625,-0.171875 0.1445312,0 0.296875,0.078125 0.453125,0.234375 0.25,0.25 0.507813,0.78125 0.78125,1.59375 0.207031,0.625 0.378906,1.265625 0.515625,1.921875 0.164062,0.792969 0.265625,1.445312 0.296875,1.953125 0.0625,0.769531 -0.03125,1.28125 -0.28125,1.53125 -0.09375,0.09375 -0.210937,0.144531 -0.34375,0.15625 C 1.171875,1.472656 1.0625,1.4375 0.96875,1.34375 Z m 0,0"
           id="path3" />
      </g>
      <g
         id="glyph-1-1" />
      <g
         id="glyph-1-2">
        <path
           d="M 1.65625,-7.03125 2,-6.53125 -1.546875,-2.984375 -1.875,-3.5 Z m 1.125,1.6875 0.328125,0.515625 -3.546875,3.546875 -0.328125,-0.515625 z m 0,0"
           id="path4" />
      </g>
      <g
         id="glyph-1-3">
        <path
           d="m -0.4375,-0.03125 c -0.082031,-0.082031 -0.113281,-0.171875 -0.09375,-0.265625 0.011719,-0.101563 0.046875,-0.1875 0.109375,-0.25 0.023437,-0.019531 0.046875,-0.039063 0.078125,-0.0625 0.03125,-0.019531 0.078125,-0.039063 0.140625,-0.0625 L 0,-0.71875 C 0.0078125,-0.726562 0.0234375,-0.738281 0.046875,-0.75 0.0664062,-0.757812 0.0820312,-0.769531 0.09375,-0.78125 c 0.0625,-0.0625 0.09375,-0.125 0.09375,-0.1875 0,-0.0625 -0.023438,-0.238281 -0.0625,-0.53125 -0.023438,-0.207031 -0.1015625,-0.679688 -0.234375,-1.421875 -0.007813,-0.00781 -0.160156,-0.101563 -0.453125,-0.28125 -0.289062,-0.175781 -0.535156,-0.320313 -0.734375,-0.4375 -0.207031,-0.125 -0.351563,-0.191406 -0.4375,-0.203125 -0.09375,-0.019531 -0.1875,0.015625 -0.28125,0.109375 -0.03125,0.03125 -0.082031,0.105469 -0.15625,0.21875 -0.039063,0.085937 -0.09375,0.167969 -0.15625,0.25 L -2.4375,-3.34375 -2.203125,-3.859375 C -2.128906,-3.992188 -2.0625,-4.113281 -2,-4.21875 c 0.0625,-0.101562 0.125,-0.1875 0.1875,-0.25 0.09375,-0.09375 0.1875,-0.132812 0.28125,-0.125 0.167969,0.023438 0.414062,0.140625 0.734375,0.359375 l 0.46875,0.3125 C -0.429688,-4.441406 -0.488281,-4.820312 -0.5,-5.0625 c -0.019531,-0.226562 -0.007812,-0.414062 0.03125,-0.5625 0.03125,-0.15625 0.089844,-0.273438 0.171875,-0.359375 0.085937,-0.082031 0.15625,-0.132813 0.21875,-0.15625 0.1328125,-0.03125 0.257813,0.011719 0.375,0.125 0.070313,0.074219 0.109375,0.152344 0.109375,0.234375 0,0.085938 -0.039062,0.164062 -0.109375,0.234375 C 0.273438,-5.523438 0.25,-5.5 0.21875,-5.46875 0.195312,-5.445312 0.164062,-5.4375 0.125,-5.4375 L 0,-5.375 c -0.03125,0.011719 -0.0625,0.027344 -0.09375,0.046875 -0.039062,0.011719 -0.066406,0.023437 -0.078125,0.03125 -0.101563,0.105469 -0.109375,0.386719 -0.015625,0.84375 0.085938,0.449219 0.1484375,0.695313 0.1875,0.734375 0.03125,0.03125 0.160156,0.121094 0.390625,0.265625 0.226563,0.148437 0.476563,0.304687 0.75,0.46875 0.238281,0.15625 0.410156,0.257813 0.515625,0.296875 0.175781,0.074219 0.300781,0.074219 0.375,0 0.0625,-0.0625 0.085938,-0.15625 0.078125,-0.28125 0,-0.132812 -0.027344,-0.363281 -0.078125,-0.6875 l 0.171875,-0.015625 c 0.070313,0.28125 0.117187,0.539063 0.140625,0.765625 0.039062,0.4375 -0.027344,0.746094 -0.203125,0.921875 -0.125,0.125 -0.277344,0.164063 -0.453125,0.109375 C 1.582031,-1.894531 1.441406,-1.960938 1.265625,-2.078125 L 0.1875,-2.71875 0.421875,-1.078125 c 0.019531,0.292969 0.019531,0.507813 0,0.640625 -0.023437,0.136719 -0.089844,0.261719 -0.203125,0.375 -0.1484375,0.1445312 -0.2890625,0.195312 -0.4375,0.15625 -0.070312,-0.0117188 -0.144531,-0.0546875 -0.21875,-0.125 z m 0,0"
           id="path5" />
      </g>
      <g
         id="glyph-2-0">
        <path
           d="m 5.0625,-2.015625 h -4.625 v -0.6875 h 4.625 z m 0,0"
           id="path6" />
      </g>
      <g
         id="glyph-3-0">
        <path
           d="M 0.515625,-4.78125 0.3125,-4.8125 c 0.132812,-0.625 0.390625,-1.097656 0.765625,-1.421875 0.382813,-0.332031 0.875,-0.5 1.46875,-0.5 0.539063,0 0.972656,0.15625 1.296875,0.46875 0.332031,0.304687 0.5,0.714844 0.5,1.234375 0,0.398438 -0.117188,0.792969 -0.34375,1.1875 -0.21875,0.398438 -0.640625,0.914062 -1.265625,1.546875 l -1.5,1.546875 h 1.9375 c 0.507813,0 0.851563,-0.050781 1.03125,-0.15625 0.175781,-0.101562 0.332031,-0.296875 0.46875,-0.578125 l 0.1875,0.0625 L 4.296875,0 h -4 V -0.1875 L 1.375,-1.296875 1.46875,-1.40625 C 2.820312,-2.820312 3.5,-3.875 3.5,-4.5625 3.5,-5.007812 3.367188,-5.363281 3.109375,-5.625 c -0.25,-0.257812 -0.589844,-0.390625 -1.015625,-0.390625 -0.367188,0 -0.683594,0.109375 -0.953125,0.328125 -0.273437,0.210938 -0.480469,0.511719 -0.625,0.90625 z m 0,0"
           id="path7" />
      </g>
      <g
         id="glyph-3-1">
        <path
           d="m 0.40625,-5.1875 c 0.21875,-0.5 0.503906,-0.878906 0.859375,-1.140625 0.363281,-0.269531 0.785156,-0.40625 1.265625,-0.40625 0.425781,0 0.785156,0.125 1.078125,0.375 0.289063,0.242187 0.4375,0.53125 0.4375,0.875 0,0.261719 -0.074219,0.507813 -0.21875,0.734375 -0.136719,0.230469 -0.382813,0.492188 -0.734375,0.78125 0.4375,0.125 0.765625,0.335938 0.984375,0.625 0.226563,0.292969 0.34375,0.65625 0.34375,1.09375 0,0.679688 -0.265625,1.246094 -0.796875,1.703125 C 3.09375,-0.0976562 2.421875,0.125 1.609375,0.125 1.210938,0.125 0.890625,0.0585938 0.640625,-0.0625 0.398438,-0.1875 0.28125,-0.34375 0.28125,-0.53125 c 0,-0.101562 0.035156,-0.191406 0.109375,-0.265625 0.082031,-0.070313 0.1875,-0.109375 0.3125,-0.109375 0.207031,0 0.46875,0.117188 0.78125,0.34375 0.320313,0.21875 0.582031,0.328125 0.78125,0.328125 0.363281,0 0.6875,-0.148437 0.96875,-0.453125 0.28125,-0.300781 0.421875,-0.65625 0.421875,-1.0625 0,-0.5 -0.171875,-0.878906 -0.515625,-1.140625 -0.34375,-0.269531 -0.839844,-0.40625 -1.484375,-0.40625 h -0.125 V -3.5 c 0.5,-0.039062 0.90625,-0.207031 1.21875,-0.5 0.320312,-0.289062 0.484375,-0.640625 0.484375,-1.046875 0,-0.289063 -0.105469,-0.53125 -0.3125,-0.71875 -0.210937,-0.1875 -0.480469,-0.28125 -0.8125,-0.28125 -0.3125,0 -0.601563,0.085937 -0.859375,0.25 -0.261719,0.167969 -0.484375,0.414063 -0.671875,0.734375 z m 0,0"
           id="path8" />
      </g>
    </g>
    <clipPath
       id="clip-0">
      <path
         clip-rule="nonzero"
         d="M 3,0 H 116.23438 V 111.89453 H 3 Z m 0,0"
         id="path9" />
    </clipPath>
  </defs>
  <path
     fill-rule="nonzero"
     fill="#e6e6e6"
     fill-opacity="1"
     d="m 15.052675,63.438138 v 30 l 75,-75 v 45 z m 0,0"
     id="path10" />
  <g
     clip-path="url(#clip-0)"
     id="g11"
     transform="translate(-6.0567002,-4.7728004)">
    <path
       fill="none"
       stroke-width="9"
       stroke-linecap="butt"
       stroke-linejoin="miter"
       stroke="#000000"
       stroke-opacity="1"
       stroke-miterlimit="10"
       d="m 3952.4018,1425.5936 899.9999,900"
       transform="matrix(0.1,0,0,-0.1,-379.1308,245.7703)"
       id="path11" />
  </g>
  <path
     fill="none"
     stroke-width="0.3"
     stroke-linecap="butt"
     stroke-linejoin="miter"
     stroke="#000000"
     stroke-opacity="1"
     stroke-miterlimit="10"
     d="m 12.05268,64.43814 v 26"
     id="path12" />
  <path
     fill="none"
     stroke-width="0.3"
     stroke-linecap="butt"
     stroke-linejoin="miter"
     stroke="#000000"
     stroke-opacity="1"
     stroke-miterlimit="10"
     d="m 93.05267,62.43814 v -40"
     id="path13" />
  <path
     fill-rule="nonzero"
     fill="#000000"
     fill-opacity="1"
     d="m 12.052675,64.438138 v 30 m 0,-4 h 1 l -1,4 -1,-4 h 1 v 4 m 81,-32 v -44 m 0,4 h -1 l 1,-4 1.000005,4 h -1.000005 v -4"
     id="path14" />
  <path
     fill="none"
     stroke-width="0.4"
     stroke-linecap="butt"
     stroke-linejoin="miter"
     stroke="#000000"
     stroke-opacity="1"
     stroke-miterlimit="10"
     d="M 5.0526798,63.43814 H 101.05267"
     id="path15" />
  <path
     fill="none"
     stroke-width="0.4"
     stroke-linecap="butt"
     stroke-linejoin="miter"
     stroke="#000000"
     stroke-opacity="1"
     stroke-miterlimit="10"
     d="M 45.05267,103.43814 V 7.4381396"
     id="path16" />
  <path
     fill-rule="nonzero"
     fill="#000000"
     fill-opacity="1"
     d="M 5.0526748,63.438138 H 105.05268 m -4,0 v -1 l 4,1 -4,1 v -1 h 4 M 45.052675,103.43814 V 3.4381376 m 0,4 h -1 l 1,-4 1,4 h -1 v -4"
     id="path17" />
  <path
     fill="none"
     stroke-width="0.3"
     stroke-linecap="butt"
     stroke-linejoin="miter"
     stroke="#000000"
     stroke-opacity="1"
     stroke-miterlimit="10"
     d="m 15.05268,63.43814 v 1.5 m 14.99999,-1.5 v 1.5 m 15,-1.5 v 1.5 m 15,-1.5 v 1.5 m 15,-1.5 v 1.5 m 15,-1.5 v 1.5 m -45,28.5 h -1.5 m 1.5,-15 h -1.5 m 1.5,-15 h -1.5 m 1.5,-15 h -1.5 m 1.5,-15 h -1.5 m 1.5,-15 h -1.5"
     id="path18" />
  <g
     fill="#000000"
     fill-opacity="1"
     id="g18"
     transform="translate(-6.0567002,-4.7728004)">
    <use
       xlink:href="#glyph-0-0"
       x="108.8892"
       y="65.210297"
       id="use18" />
  </g>
  <g
     fill="#000000"
     fill-opacity="1"
     id="g19"
     transform="translate(-6.0567002,-4.7728004)">
    <use
       xlink:href="#glyph-0-1"
       x="43.6693"
       y="9.2103004"
       id="use19" />
  </g>
  <g
     fill="#000000"
     fill-opacity="1"
     id="g24"
     transform="translate(-6.0567002,-4.7728004)">
    <use
       xlink:href="#glyph-1-0"
       x="73.029198"
       y="40.632301"
       id="use20" />
    <use
       xlink:href="#glyph-1-1"
       x="76.168755"
       y="37.492744"
       id="use21" />
    <use
       xlink:href="#glyph-1-2"
       x="77.936523"
       y="35.724976"
       id="use22" />
    <use
       xlink:href="#glyph-1-1"
       x="82.709496"
       y="30.952005"
       id="use23" />
    <use
       xlink:href="#glyph-1-3"
       x="84.477264"
       y="29.184238"
       id="use24" />
  </g>
  <g
     fill="#000000"
     fill-opacity="1"
     id="g25"
     transform="translate(-6.0567002,-4.7728004)">
    <use
       xlink:href="#glyph-2-0"
       x="5.6192002"
       y="85.210297"
       id="use25" />
  </g>
  <g
     fill="#000000"
     fill-opacity="1"
     id="g26"
     transform="translate(-6.0567002,-4.7728004)">
    <use
       xlink:href="#glyph-3-0"
       x="11.1092"
       y="85.210297"
       id="use26" />
  </g>
  <g
     fill="#000000"
     fill-opacity="1"
     id="g27"
     transform="translate(-6.0567002,-4.7728004)">
    <use
       xlink:href="#glyph-3-1"
       x="102.1087"
       y="48.2103"
       id="use27" />
  </g>
</svg>
